<svg width="40" height="40" viewBox="0 0 40 40" fill="none" xmlns="http://www.w3.org/2000/svg">
<circle cx="20" cy="20" r="20" fill="#90F3FF"/>
<path d="M19.9998 12.7274C18.0247 12.7274 17.7768 12.7361 17.0011 12.7714C16.2269 12.8068 15.6984 12.9294 15.236 13.1092C14.7577 13.295 14.3519 13.5435 13.9477 13.9479C13.5432 14.3521 13.2947 14.7579 13.1083 15.2361C12.928 15.6986 12.8053 16.2273 12.7705 17.0012C12.7358 17.777 12.7267 18.025 12.7267 20.0001C12.7267 21.9753 12.7355 22.2224 12.7706 22.9982C12.8062 23.7724 12.9288 24.3009 13.1085 24.7633C13.2944 25.2417 13.5429 25.6474 13.9473 26.0517C14.3513 26.4562 14.7571 26.7053 15.2351 26.8911C15.6978 27.0709 16.2264 27.1935 17.0005 27.2289C17.7762 27.2642 18.024 27.2729 19.9989 27.2729C21.9741 27.2729 22.2212 27.2642 22.997 27.2289C23.7712 27.1935 24.3003 27.0709 24.763 26.8911C25.2412 26.7053 25.6463 26.4562 26.0504 26.0517C26.4549 25.6474 26.7034 25.2417 26.8897 24.7635C27.0685 24.3009 27.1913 23.7723 27.2276 22.9983C27.2625 22.2226 27.2716 21.9753 27.2716 20.0001C27.2716 18.025 27.2625 17.7771 27.2276 17.0014C27.1913 16.2271 27.0685 15.6986 26.8897 15.2362C26.7034 14.7579 26.4549 14.3521 26.0504 13.9479C25.6458 13.5433 25.2413 13.2948 24.7625 13.1092C24.2989 12.9294 23.7701 12.8068 22.9959 12.7714C22.2202 12.7361 21.9732 12.7274 19.9975 12.7274H19.9998ZM19.3474 14.038C19.541 14.0377 19.7571 14.038 19.9998 14.038C21.9416 14.038 22.1717 14.045 22.9385 14.0798C23.6476 14.1123 24.0324 14.2308 24.2888 14.3303C24.6281 14.4621 24.8701 14.6197 25.1245 14.8742C25.379 15.1288 25.5366 15.3712 25.6687 15.7106C25.7683 15.9667 25.8869 16.3515 25.9192 17.0606C25.954 17.8273 25.9616 18.0576 25.9616 19.9985C25.9616 21.9394 25.954 22.1697 25.9192 22.9364C25.8867 23.6454 25.7683 24.0303 25.6687 24.2864C25.5369 24.6258 25.379 24.8674 25.1245 25.1218C24.87 25.3764 24.6283 25.5339 24.2888 25.6658C24.0327 25.7658 23.6476 25.8839 22.9385 25.9164C22.1719 25.9512 21.9416 25.9588 19.9998 25.9588C18.0579 25.9588 17.8277 25.9512 17.0611 25.9164C16.352 25.8836 15.9672 25.7651 15.7107 25.6656C15.3713 25.5338 15.1289 25.3762 14.8743 25.1217C14.6198 24.8671 14.4622 24.6253 14.3301 24.2858C14.2306 24.0297 14.1119 23.6448 14.0797 22.9358C14.0448 22.1691 14.0379 21.9388 14.0379 19.9967C14.0379 18.0545 14.0448 17.8254 14.0797 17.0588C14.1121 16.3497 14.2306 15.9648 14.3301 15.7085C14.4619 15.3691 14.6198 15.1267 14.8743 14.8721C15.1289 14.6176 15.3713 14.46 15.7107 14.3279C15.967 14.2279 16.352 14.1097 17.0611 14.0771C17.732 14.0468 17.992 14.0377 19.3474 14.0362V14.038ZM23.8818 15.2456C23.4 15.2456 23.0091 15.6361 23.0091 16.118C23.0091 16.5998 23.4 16.9908 23.8818 16.9908C24.3636 16.9908 24.7545 16.5998 24.7545 16.118C24.7545 15.6362 24.3636 15.2453 23.8818 15.2453V15.2456ZM19.9998 16.2653C17.9373 16.2653 16.2651 17.9376 16.2651 20.0001C16.2651 22.0627 17.9373 23.7342 19.9998 23.7342C22.0623 23.7342 23.7339 22.0627 23.7339 20.0001C23.7339 17.9376 22.0622 16.2653 19.9996 16.2653H19.9998ZM19.9998 17.5759C21.3385 17.5759 22.424 18.6612 22.424 20.0001C22.424 21.3389 21.3385 22.4244 19.9998 22.4244C18.6609 22.4244 17.5756 21.3389 17.5756 20.0001C17.5756 18.6612 18.6609 17.5759 19.9998 17.5759V17.5759Z" fill="#020887"/>
</svg>
