<svg width="40" height="40" viewBox="0 0 40 40" fill="none" xmlns="http://www.w3.org/2000/svg">
<circle cx="20" cy="20" r="20" fill="#90F3FF"/>
<g clip-path="url(#clip0_18_811)">
<path d="M25.4278 25.5208H23.0531V21.8386C23.0531 20.9606 23.0373 19.8302 21.8181 19.8302C20.5813 19.8302 20.392 20.7869 20.392 21.7747V25.5206H18.0173V17.9485H20.297V18.9833H20.329C20.5571 18.5971 20.8868 18.2793 21.2829 18.0639C21.6789 17.8485 22.1266 17.7435 22.5782 17.7601C24.985 17.7601 25.4288 19.3277 25.4288 21.3669L25.4278 25.5208ZM15.3379 16.9134C15.0654 16.9135 14.7989 16.8335 14.5723 16.6836C14.3456 16.5337 14.169 16.3206 14.0646 16.0713C13.9603 15.822 13.9329 15.5477 13.9861 15.283C14.0392 15.0183 14.1704 14.7752 14.3631 14.5843C14.5558 14.3934 14.8013 14.2634 15.0686 14.2107C15.3359 14.158 15.613 14.185 15.8648 14.2882C16.1166 14.3915 16.3319 14.5663 16.4834 14.7907C16.6348 15.015 16.7157 15.2788 16.7157 15.5487C16.7158 15.7279 16.6802 15.9053 16.6109 16.0709C16.5417 16.2364 16.4402 16.3869 16.3123 16.5136C16.1844 16.6403 16.0324 16.7409 15.8653 16.8095C15.6981 16.8781 15.5189 16.9134 15.3379 16.9134ZM16.5253 25.5208H14.1481V17.9485H16.5253V25.5208ZM26.6117 12.001H12.9549C12.6449 11.9975 12.3462 12.116 12.1244 12.3305C11.9027 12.545 11.776 12.8378 11.7722 13.1448V26.7232C11.7759 27.0303 11.9025 27.3233 12.1242 27.538C12.346 27.7527 12.6447 27.8715 12.9549 27.8682H26.6117C26.9224 27.8721 27.222 27.7536 27.4446 27.539C27.6673 27.3243 27.7947 27.0309 27.799 26.7232V13.1438C27.7946 12.8363 27.6671 12.5431 27.4444 12.3286C27.2218 12.1141 26.9223 11.9959 26.6117 12" fill="#020887"/>
</g>
<defs>
<clipPath id="clip0_18_811">
<rect width="16" height="16" fill="white" transform="translate(11.9997 12)"/>
</clipPath>
</defs>
</svg>
