<svg width="161" height="33" viewBox="0 0 161 33" fill="none" xmlns="http://www.w3.org/2000/svg">
<g clip-path="url(#clip0_18_90)">
<path d="M22.3152 9.17544C21.6241 8.41284 20.7769 7.80797 19.8313 7.40196C18.8893 6.99931 17.8751 6.79308 16.8506 6.79589C15.6402 6.74683 14.439 7.02484 13.3732 7.60067C12.4715 8.13365 11.75 8.92434 11.3016 9.87093H10.6558V0H0V4.29214H6.16499V25.0375H10.6707V22.4642H11.3165C11.5347 22.8747 11.7909 23.2639 12.0816 23.6266C12.3981 24.0142 12.7736 24.3494 13.1944 24.6202C13.6751 24.9234 14.1995 25.1513 14.7493 25.2958C15.4381 25.4765 16.1485 25.5618 16.8606 25.5492C17.9082 25.5577 18.9469 25.3567 19.9157 24.958C20.8523 24.5633 21.6866 23.9602 22.3549 23.1945C23.0839 22.3672 23.6472 21.4076 24.0141 20.3678C24.4368 19.1239 24.6419 17.8165 24.6202 16.5029V15.8471C24.6417 14.5433 24.4297 13.2461 23.9943 12.017C23.6198 10.9719 23.05 10.0076 22.3152 9.17544ZM20.1144 16.3936C20.1489 17.0441 20.0509 17.6947 19.8263 18.3062C19.6017 18.9176 19.2552 19.477 18.8079 19.9505C18.3576 20.3865 17.8232 20.7263 17.2373 20.9492C16.6514 21.1721 16.0263 21.2735 15.4 21.2471C14.7692 21.2728 14.14 21.1668 13.5524 20.9359C12.9648 20.7049 12.4317 20.3541 11.9872 19.9058C11.5453 19.4373 11.2012 18.8854 10.9752 18.2823C10.7491 17.6792 10.6456 17.0371 10.6707 16.3936V15.9614C10.64 15.3136 10.7398 14.6662 10.9643 14.0577C11.1887 13.4492 11.5332 12.8921 11.9773 12.4194C12.4238 11.9716 12.9588 11.6219 13.5482 11.3926C14.1376 11.1634 14.7683 11.0596 15.4 11.088C16.0288 11.0662 16.6554 11.1731 17.2414 11.402C17.8274 11.6309 18.3605 11.9771 18.8079 12.4194C19.2552 12.8929 19.6017 13.4523 19.8263 14.0637C20.0509 14.6752 20.1489 15.3258 20.1144 15.9763V16.3936Z" fill="white"/>
<path d="M35.8523 0H25.3356V4.29214H31.3465V20.7453H25.1219V25.0375H41.6447V20.7453H35.8523V0Z" fill="white"/>
<path d="M55.5593 16.5973C55.6262 17.8533 55.2941 19.0983 54.6105 20.1542C53.9779 21.0252 52.9843 21.4607 51.6298 21.4607C51.1323 21.4974 50.633 21.4218 50.1686 21.2395C49.7043 21.0572 49.2869 20.7729 48.9472 20.4075C48.3059 19.5625 47.9887 18.5156 48.053 17.4567V7.29764H43.5423V18.3807C43.524 19.4563 43.6921 20.5269 44.0391 21.5452C44.3239 22.3764 44.781 23.1382 45.3804 23.7807C45.9341 24.3659 46.6136 24.8177 47.3675 25.1021C48.1622 25.3963 49.004 25.5427 49.8513 25.5343C52.4478 25.5343 54.1402 24.5093 54.9284 22.4592H55.5742V25.0375H60.08V7.29764H55.5742L55.5593 16.5973Z" fill="white"/>
<path d="M73.8705 16.5973C73.9388 17.8528 73.6085 19.0978 72.9266 20.1542C72.2907 21.0235 71.2972 21.4607 69.9459 21.4607C69.4485 21.4974 68.9491 21.4218 68.4848 21.2395C68.0204 21.0572 67.603 20.7729 67.2633 20.4075C66.622 19.5625 66.3048 18.5156 66.3692 17.4567V7.29764H61.8634V18.3807C61.8475 19.4561 62.0155 20.5264 62.3602 21.5452C62.645 22.3764 63.1021 23.1382 63.7015 23.7807C64.2557 24.3654 64.935 24.8171 65.6886 25.1021C66.483 25.3974 67.325 25.5439 68.1724 25.5343C70.7756 25.5343 72.4646 24.5059 73.2545 22.4592H73.8953V25.0375H78.406V7.29764H73.8705V16.5973Z" fill="white"/>
<path d="M84.119 14.0736C84.343 13.4779 84.6805 12.9313 85.1126 12.4641C85.5357 12.0277 86.0426 11.6813 86.6029 11.4457C87.1806 11.2058 87.8005 11.0842 88.4261 11.088C89.0119 11.0526 89.5988 11.1356 90.1518 11.3319C90.7049 11.5282 91.2128 11.8338 91.6452 12.2306C92.3921 12.9592 92.8716 13.9183 93.0063 14.9529L97.4376 13.8054C97.0988 11.8218 96.0672 10.0227 94.5265 8.72833C92.9865 7.44334 90.9762 6.79919 88.4956 6.79588C87.2574 6.78657 86.028 7.00549 84.8691 7.44169C83.7531 7.8496 82.7346 8.48634 81.8791 9.31105C81.0236 10.1358 80.3499 11.1302 79.9014 12.2306C79.4091 13.4588 79.1659 14.7725 79.186 16.0955V16.5227C79.1772 17.8431 79.4375 19.1514 79.9511 20.3678C80.4018 21.4423 81.0797 22.4066 81.9382 23.1944C82.7946 23.9692 83.7981 24.5639 84.889 24.9431C86.0664 25.358 87.3069 25.5647 88.5552 25.5541C91.0855 25.5541 93.1073 24.91 94.6208 23.6217C96.145 22.3187 97.1631 20.5218 97.4972 18.5446L93.0659 17.4318C92.9072 18.4907 92.4106 19.47 91.6501 20.2237C90.9248 20.9142 89.8667 21.262 88.4857 21.262C87.8652 21.2645 87.2488 21.162 86.6625 20.9589C86.1077 20.761 85.6001 20.4497 85.1722 20.0449C84.7394 19.6124 84.4011 19.0948 84.1786 18.5247C83.9196 17.8585 83.793 17.1481 83.806 16.4333V16.2197C83.774 15.491 83.8802 14.7628 84.119 14.0736Z" fill="white"/>
<path d="M113.324 8.51473C112.785 7.94524 112.125 7.50389 111.392 7.22312C110.615 6.93263 109.792 6.7878 108.963 6.79589C107.814 6.75778 106.679 7.06212 105.704 7.67022C104.81 8.28281 104.118 9.1474 103.717 10.1541H103.076V0H98.5652V25.0375H103.076V15.8074C103.015 14.5348 103.363 13.276 104.07 12.2157C104.418 11.765 104.873 11.4069 105.392 11.173C105.912 10.9392 106.481 10.8366 107.05 10.8744C107.542 10.8435 108.035 10.9254 108.49 11.114C108.946 11.3025 109.352 11.5927 109.678 11.9624C110.325 12.8167 110.649 13.8727 110.592 14.943V25.0375H115.098V13.8799C115.121 12.8048 114.963 11.7334 114.631 10.7105C114.361 9.89201 113.915 9.14256 113.324 8.51473Z" fill="white"/>
<path d="M127.632 7.29764H117.547V11.5898H123.126V20.7454H117.115V25.0375H132.783V20.7454H127.632V7.29764Z" fill="white"/>
<path d="M150.324 9.17545C149.635 8.41131 148.787 7.80619 147.84 7.40197C146.898 6.99945 145.884 6.79323 144.86 6.7959C143.649 6.74585 142.448 7.02392 141.382 7.60068C140.479 8.13336 139.756 8.924 139.306 9.87094H138.665V7.29764H134.179V32.1911H138.685V22.4642H139.326C139.546 22.8736 139.802 23.2626 140.091 23.6267C140.407 24.0129 140.78 24.3481 141.199 24.6202C141.682 24.9225 142.207 25.1503 142.758 25.2958C143.446 25.4762 144.154 25.5615 144.865 25.5492C145.914 25.5577 146.954 25.3567 147.925 24.958C148.864 24.5675 149.702 23.9677 150.374 23.2044C151.097 22.3727 151.654 21.4097 152.013 20.3678C152.44 19.1249 152.647 17.8169 152.624 16.5029V15.8472C152.651 14.5442 152.444 13.2471 152.013 12.017C151.638 10.9703 151.064 10.0056 150.324 9.17545ZM148.129 16.3936C148.163 17.0441 148.065 17.6947 147.84 18.3062C147.616 18.9176 147.269 19.477 146.822 19.9505C146.371 20.3891 145.835 20.7311 145.248 20.9557C144.66 21.1804 144.033 21.2829 143.404 21.257C142.773 21.2827 142.144 21.1767 141.557 20.9458C140.969 20.7149 140.436 20.3641 139.991 19.9157C139.549 19.4459 139.206 18.8921 138.981 18.2871C138.757 17.6821 138.656 17.0382 138.685 16.3936V15.9614C138.653 15.3135 138.752 14.6658 138.977 14.0571C139.201 13.4485 139.546 12.8914 139.991 12.4194C140.436 11.9711 140.969 11.6203 141.557 11.3893C142.144 11.1584 142.773 11.0524 143.404 11.0781C144.035 11.0568 144.664 11.1648 145.252 11.3955C145.84 11.6261 146.374 11.9746 146.822 12.4194C147.269 12.8929 147.616 13.4523 147.84 14.0637C148.065 14.6752 148.163 15.3259 148.129 15.9763V16.3936Z" fill="white"/>
<path d="M160.732 20.8C160.563 20.3957 160.312 20.0305 159.996 19.7269C159.68 19.4249 159.311 19.1825 158.909 19.0116C158.492 18.8345 158.045 18.7432 157.592 18.7432C157.14 18.7432 156.692 18.8345 156.276 19.0116C155.879 19.1864 155.516 19.4284 155.203 19.7269C154.899 20.0344 154.659 20.3991 154.497 20.8C154.32 21.2248 154.228 21.6808 154.228 22.1413C154.228 22.6018 154.32 23.0577 154.497 23.4826C154.666 23.8855 154.915 24.2504 155.227 24.5556C155.541 24.8541 155.904 25.0962 156.3 25.271C156.717 25.448 157.165 25.5393 157.617 25.5393C158.069 25.5393 158.517 25.448 158.933 25.271C159.336 25.1 159.705 24.8576 160.021 24.5556C160.337 24.252 160.588 23.8868 160.757 23.4826C160.934 23.0577 161.026 22.6018 161.026 22.1413C161.026 21.6808 160.934 21.2248 160.757 20.8H160.732Z" fill="#95F244"/>
</g>
<defs>
<clipPath id="clip0_18_90">
<rect width="161" height="32.1911" fill="white"/>
</clipPath>
</defs>
</svg>
