<svg width="176" height="188" viewBox="0 0 176 188" fill="none" xmlns="http://www.w3.org/2000/svg">
<path d="M56.8512 56.8888L56.8449 56.8929L56.839 56.8976L50.9603 61.3154L50.9601 61.3151L50.9522 61.3217L45.3239 66.0046L45.4105 66.1113L45.3158 66.0117L39.9761 70.9452L39.9759 70.9449L39.9678 70.9532L34.9597 76.1281L35.2533 76.4204L45.5898 66.3232L69.4715 49.2634L82.5434 42.6132L82.3604 42.2414L75.7421 45.3898L75.742 45.3895L75.7323 45.3948L69.2649 48.9037L69.3289 49.0255L69.2559 48.9089L62.9596 52.7459L62.9595 52.7457L62.9511 52.7514L56.8512 56.8888Z" fill="#90F3FF" stroke="white" stroke-width="0.414369"/>
<path d="M73.6844 79.4725L73.1973 79.3869L73.4778 79.7941L75.9499 83.383L69.7287 82.5017L69.2555 82.4347L69.5301 82.8259L72.3087 86.7847L72.4331 86.962L72.6047 86.8299L76.5098 83.8224L80.5981 81.0547L84.8508 78.5421L85.308 78.2719L84.7887 78.1611L77.8255 76.6747L77.3227 76.5674L77.6106 76.9933L80.0421 80.5909L73.6844 79.4725Z" fill="#0C0C0C" stroke="white" stroke-width="0.414369"/>
<path d="M96.1528 37.5702L95.9976 37.1862L82.3774 42.2342L82.3661 42.2384L82.3554 42.2438L69.2697 48.9011L69.4468 49.2755L96.1528 37.5702Z" fill="#90F3FF" stroke="white" stroke-width="0.414369"/>
<path d="M77.9539 76.7612L77.8378 76.5894L77.6661 76.7057L73.7025 79.3897L73.6954 79.3794L73.5272 79.5084L73.1086 79.7919L73.1486 79.799L69.5735 82.5424L69.1822 82.8427L69.6706 82.9119L76.3594 83.8594L76.8269 83.9256L76.559 83.5367L74.0996 79.9662L80.4513 81.0835L80.9324 81.1681L80.6589 80.7635L77.9539 76.7612ZM82.1228 74.1306L81.6018 73.9978L81.899 74.4459L84.5727 78.4781L84.6748 78.632L84.8393 78.5483L89.2295 76.3168L89.7202 76.0673L89.1867 75.9314L82.1228 74.1306Z" fill="#0C0C0C" stroke="white" stroke-width="0.414369"/>
<path d="M69.5012 49.2408L69.2432 48.9173L45.3359 65.9953L45.3177 66.0083L45.3027 66.0248L26.1449 87.1874L26.4361 87.4814L69.5012 49.2408Z" fill="#90F3FF" stroke="white" stroke-width="0.414369"/>
<path d="M65.6895 85.9153L65.4743 86.1022L65.5123 86.1064L62.4093 89.1685L62.054 89.1397L62.2148 89.3605L62.02 89.5527L62.3757 89.5815L65.1865 93.4426L65.329 93.6383L65.5004 93.4674L68.8672 90.1079L69.2167 90.1363L69.0663 89.9259L72.5461 86.8815L72.9112 86.9218L72.7548 86.699L72.9693 86.5113L72.5941 86.4699L69.9833 82.7503L73.7697 79.8446L77.8253 77.0983L84.7022 78.5662L85.1986 78.6722L84.9181 78.2491L82.5414 74.6649L89.006 76.3129L89.0568 76.3909L89.1524 76.3502L89.5986 76.4639L89.4437 76.2259L93.713 74.4044L94.2386 74.1801L93.6914 74.0154L86.6214 71.8877L86.5608 71.7945L86.4688 71.8418L86.0067 71.7027L86.1902 71.9847L82.1419 74.0624L82.1354 74.0526L82.0359 74.1116L75.0741 72.6029L74.5694 72.4935L74.8585 72.9214L77.3355 76.5862L70.8976 75.4257L70.408 75.3374L70.6902 75.7471L73.208 79.4022L66.9028 78.474L66.4264 78.4038L66.703 78.798L69.4227 82.6729L66.0037 85.6424L65.9949 85.6301L65.8923 85.7314L65.5294 85.6914L65.6895 85.9153Z" fill="#0C0C0C" stroke="white" stroke-width="0.414369"/>
<path d="M96.1416 37.5749L96.0038 37.1841L89.135 39.4839L89.1348 39.4835L89.1226 39.4885L82.3712 42.2367L82.5214 42.6229L96.1416 37.5749Z" fill="#90F3FF" stroke="white" stroke-width="0.414369"/>
<path d="M75.202 72.6894L75.0858 72.5176L74.9141 72.6339L70.7448 75.4581L70.3237 75.7433L70.8242 75.8335L77.7456 77.0812L78.2291 77.1683L77.954 76.7612L75.202 72.6894Z" fill="#0C0C0C" stroke="white" stroke-width="0.414369"/>
<path d="M45.6099 66.303L45.3115 66.0158L34.9636 76.1241L34.9544 76.1331L34.9464 76.1432L26.1364 87.1974L26.4521 87.4656L45.6099 66.303Z" fill="#90F3FF" stroke="white" stroke-width="0.414369"/>
<path d="M71.3034 75.9069L71.15 75.6841L75.073 73.0268L81.9455 74.5161L82.0014 74.6004L82.1003 74.5497L82.5261 74.642L82.3723 74.41L86.5094 72.2868L93.4984 74.3902L93.5448 74.4628L93.6359 74.4315L94.1069 74.5733L93.948 74.3243L98.2078 72.8613L98.6991 73.0344L98.5228 72.7531L98.8392 72.6444L98.3458 72.4706L95.7801 68.3758L95.6921 68.2353L95.5357 68.2903L91.0947 69.8547L91.0881 69.8444L91.0007 69.8823L90.5104 69.7096L90.5327 69.7446L84.3445 67.8745L84.3716 67.8605L83.9261 67.7449L83.8676 67.655L83.7757 67.7026L83.3134 67.5629L83.3314 67.5907L76.635 65.8537L76.1114 65.7179L76.4103 66.1688L78.8805 69.894L78.8955 69.9165L72.3552 68.4776L72.2854 68.3743L72.1874 68.4407L71.7677 68.3484L71.9424 68.6068L68.0783 71.2249L68.0717 71.2152L67.9718 71.2913L67.5698 71.2171L67.7353 71.4573L67.4897 71.6237L67.5265 71.6305L63.9403 74.3623L63.5476 74.3023L63.7119 74.5364L63.482 74.7115L63.8772 74.7719L66.5888 78.6353L66.3569 78.8125L66.3941 78.818L63.134 81.6286L63.1255 81.6168L63.0234 81.7164L62.6567 81.6735L62.8188 81.9003L62.605 82.0846L62.6417 82.0889L59.4935 85.1607L59.1339 85.1285L59.297 85.3525L59.103 85.5418L59.4579 85.5736L62.2219 89.3703L59.208 92.7823L58.8683 92.764L59.0307 92.9832L58.8581 93.1785L59.1885 93.1962L62.0467 97.0542L62.2003 97.2614L62.3695 97.0669L65.4439 93.5331L65.778 93.5511L65.6187 93.3323L65.7888 93.1367L65.4636 93.1192L62.7597 89.4051L66.0448 86.1632L66.3987 86.1948L66.2458 85.9811L69.7665 82.9233L70.135 82.9665L69.9766 82.7408L70.1897 82.5557L69.816 82.5119L67.3189 78.9542L73.6183 79.8816L74.089 79.9509L73.8191 79.5591L71.3034 75.9069Z" fill="#0C0C0C" stroke="white" stroke-width="0.414369"/>
<path d="M69.5642 49.1381L69.7362 48.478L69.2261 48.9309L26.161 87.1716L26.4146 87.4981L66.5953 60.3252L66.66 60.2814L66.6797 60.2058L69.5642 49.1381Z" fill="#90F3FF" stroke="white" stroke-width="0.414369"/>
<path d="M60.202 77.6425L59.7332 77.5843L60.0079 77.9686L62.9288 82.054L63.0608 82.2386L63.2327 82.0904L67.0079 78.8358L67.3617 78.5308L66.8981 78.4733L60.202 77.6425ZM76.7557 65.9396L76.6463 65.7746L76.4765 65.8764L72.1234 68.4843L71.676 68.7523L72.1854 68.8644L79.3067 70.4311L79.807 70.5412L79.5239 70.1143L76.7557 65.9396ZM88.5137 65.8116L88.4181 65.6619L88.2555 65.7335L83.7127 67.7355L83.2002 67.9614L83.7363 68.1234L90.9485 70.3029L91.4842 70.4648L91.1831 69.9931L88.5137 65.8116Z" fill="#0C0C0C" stroke="white" stroke-width="0.414369"/>
<path d="M69.5675 49.0486L69.1632 49.0336L66.2787 60.1013L66.1501 60.5948L66.5865 60.3308L71.0052 57.658L71.1274 57.584L71.1017 57.4435L69.5675 49.0486ZM35.2705 76.4014L34.951 76.1376L30.3249 81.5481L30.3202 81.5535L30.3159 81.5593L26.1321 87.2031L26.4606 87.4556L35.2705 76.4014Z" fill="#90F3FF" stroke="white" stroke-width="0.414369"/>
<path d="M64.1655 74.4614L64.0345 74.2747L63.8612 74.423L60.0418 77.6908L59.6851 77.9961L60.151 78.0539L66.8472 78.8847L67.3105 78.9421L67.0423 78.56L64.1655 74.4614ZM96.1864 68.5005L96.2278 68.4859L95.6784 68.2921L95.0867 68.0494L95.114 68.093L88.408 65.7279L87.8409 65.5279L88.1645 66.0348L90.8339 70.2163L90.9223 70.3548L91.0774 70.3002L95.517 68.7363L98.0331 72.7519L98.1135 72.8802L98.2602 72.8426L102.893 71.6551L103.499 71.4999L102.921 71.2627L96.1864 68.5005ZM59.5633 93.006L62.6425 89.52L62.9225 89.2031L62.5005 89.1761L56.3423 88.7818L55.8969 88.7533L56.1626 89.1119L59.0382 92.9933L56.2748 96.6439L56.032 96.9647L56.4342 96.976L62.2074 97.138L62.6334 97.1499L62.3797 96.8075L59.5633 93.006Z" fill="#0C0C0C" stroke="white" stroke-width="0.414369"/>
<path d="M69.509 48.9381L69.0418 48.4778L69.1597 49.1229L70.694 57.5178L70.745 57.797L70.9954 57.6633L75.525 55.2443L75.7734 55.1116L75.5728 54.914L69.509 48.9381Z" fill="#90F3FF" stroke="white" stroke-width="0.414369"/>
<path d="M56.4459 96.5616L56.0155 96.5496L56.2746 96.8934L59.2437 100.834L59.4105 101.055L59.5756 100.833L62.3796 97.0542L62.6167 96.7348L62.2191 96.7236L56.4459 96.5616ZM81.035 63.4901L80.5725 63.3498L80.7581 63.6351L76.5542 65.8354L69.4252 64.2432L68.9165 64.1296L69.2084 64.5614L71.7798 68.3661L65.1762 67.1172L64.6814 67.0236L64.967 67.4383L67.5798 71.2313L61.1006 70.2043L60.6177 70.1278L60.8986 70.528L63.8264 74.6993L63.9501 74.8756L64.1215 74.7451L68.1454 71.6799L72.3414 68.8368L76.6151 66.2765L83.6665 68.1055L83.7187 68.1858L83.814 68.1438L84.2612 68.2598L84.1029 68.0164L88.4227 66.1127L88.9344 65.8872L88.3993 65.7249L81.1885 63.5367L81.1269 63.442L81.035 63.4901ZM62.6548 89.2607L59.8431 85.3985L63.1732 82.1491L63.5314 82.1842L63.3694 81.9576L63.5609 81.7707L63.2113 81.7365L60.3451 77.7276L60.2055 77.5323L60.0327 77.699L56.526 81.0815L56.1619 81.0459L56.3274 81.2732L56.1342 81.4595L56.4883 81.4942L59.3039 85.3619L56.1749 88.8501L55.8898 89.1679L56.3159 89.1952L62.474 89.5894L62.9146 89.6176L62.6548 89.2607Z" fill="#0C0C0C" stroke="white" stroke-width="0.414369"/>
<path d="M69.4337 48.8909L69.2182 49.2334L75.282 55.2092L75.3843 55.31L75.5145 55.2497L80.1283 53.113L80.5864 52.9008L80.1113 52.73L69.4337 48.8909Z" fill="#90F3FF" stroke="white" stroke-width="0.414369"/>
<path d="M69.2683 64.2708L68.8297 64.5348L68.8666 64.5431L65.1916 67.0339L65.1852 67.0246L65.0168 67.1524L64.6057 67.431L64.6408 67.4377L61.1142 70.114L61.1072 70.104L60.9384 70.2474L60.556 70.5376L60.5902 70.543L57.1395 73.4727L56.7577 73.4226L56.9242 73.6555L56.7131 73.8347L57.0874 73.8838L60.0079 77.9687L60.1394 78.1525L60.3112 78.0056L64.0605 74.7977L64.4362 74.847L64.2736 74.6154L64.484 74.4353L64.1132 74.3867L61.5186 70.6902L67.9919 71.7162L68.469 71.7919L68.195 71.3941L65.5939 67.6179L72.1914 68.8657L72.68 68.9581L72.4015 68.5461L69.8435 64.7613L76.4564 66.2382L76.5136 66.3243L76.6119 66.2729L77.0401 66.3685L76.8827 66.1312L81.0769 63.9359L88.2057 66.0992L88.2536 66.1743L88.3399 66.1432L95.4674 68.657L95.5102 68.7253L95.5905 68.7038L102.763 71.646L103.352 71.8873L103.018 71.3457L100.575 67.3736L100.9 67.2867L100.393 67.0791L100.348 67.0052L100.266 67.027L93.5304 64.2678L93.5702 64.2534L93.0914 64.0844L93.041 64.004L92.9589 64.0337L92.4366 63.8198L92.4635 63.8627L85.7585 61.4958L85.7007 61.4052L85.6132 61.4444L85.1239 61.2717L85.3184 61.5765L81.0378 63.4941L73.8946 61.625L73.8287 61.5256L73.7336 61.5829L73.293 61.4676L73.4734 61.7395L69.4416 64.1666L69.4355 64.1576L69.2683 64.2708Z" fill="#0C0C0C" stroke="white" stroke-width="0.414369"/>
<path d="M69.3905 48.8804L69.2934 49.2808L79.971 53.1199L80.0441 53.1462L80.1164 53.118L84.7882 51.296L84.74 50.8976L69.3905 48.8804Z" fill="#90F3FF" stroke="white" stroke-width="0.414369"/>
<path d="M56.5961 89.0011L59.6562 85.5897L60.0007 85.6153L59.8361 85.3892L60.0056 85.2002L59.681 85.1761L56.8746 81.3211L60.2507 78.0645L60.6133 78.1031L60.449 77.8732L60.6397 77.6892L60.2909 77.6521L57.4829 73.7247L61.1979 70.5707L65.1918 67.5398L65.5843 67.6042L65.4266 67.3753L69.425 64.6653L69.8317 64.7441L69.6738 64.5104L73.7976 62.0281L80.9259 63.8933L80.9789 63.9747L81.074 63.932L81.5217 64.0492L81.3616 63.8032L85.6313 61.8904L92.8803 64.4495L100.111 67.4114L102.665 71.563L102.738 71.6813L102.875 71.6589L107.394 70.9213L108.037 70.8164L107.452 70.5306L100.397 67.0855L97.7929 62.8521L97.7112 62.7193L97.5609 62.761L93.0476 64.0148L90.4318 59.84L90.3423 59.6972L90.1843 59.7558L85.7069 61.4151L83.0313 57.2239L82.9345 57.0723L82.7708 57.1469L78.3431 59.1635L78.3372 59.1543L78.2454 59.2029L77.7827 59.0619L77.8 59.0885L71.0269 57.3005L70.9606 57.2006L70.8657 57.258L70.4242 57.1414L70.6058 57.4152L66.5404 59.8743L66.5346 59.8657L66.4372 59.9317L66.0142 59.8358L66.1854 60.0891L65.9325 60.2421L65.9676 60.2501L62.2532 62.7683L62.247 62.7593L62.148 62.8342L61.7412 62.7555L61.9102 63.0008L61.6699 63.1637L61.7035 63.1702L58.0339 65.9443L57.6353 65.8788L57.8035 66.1185L57.5775 66.2893L57.9684 66.3535L60.6252 70.1388L54.2056 69.2521L53.7287 69.1862L54.0087 69.5778L56.9304 73.6643L53.5053 76.9297L53.1365 76.8904L53.3045 77.1211L53.1121 77.3045L53.4654 77.3421L56.334 81.2826L53.2228 84.6968L52.8723 84.6708L53.0401 84.8973L52.8681 85.086L53.198 85.1105L56.0692 88.986L53.3191 92.5464L52.989 92.5331L53.1571 92.7562L53.0084 92.9486L53.3112 92.9608L56.1884 96.7793L53.8509 100.485L53.5443 100.484L53.7128 100.704L53.59 100.898L53.8624 100.899L56.826 104.77L57.0091 105.009L57.167 104.752L59.5247 100.917L59.8256 100.918L59.6596 100.698L59.779 100.503L59.5127 100.503L56.6996 96.7692L59.3968 93.206L59.721 93.219L59.5557 92.9959L59.7014 92.8035L59.4043 92.7916L56.5961 89.0011Z" fill="#0C0C0C" stroke="white" stroke-width="0.414369"/>
<path d="M62.3201 63.2236L58.213 66.3283L58.2031 66.3358L58.2029 66.3355L26.4146 87.498L26.4146 87.4981L26.4134 87.4989L26.1876 87.1624L26.1875 87.1622M62.3201 63.2236L26.1875 87.1622M62.3201 63.2236L66.5953 60.3251L66.5955 60.325L66.3632 59.9819L66.363 59.982L26.196 87.1457L26.1837 87.154L62.3201 63.2236ZM26.1875 87.1622L26.1825 87.1548L26.1825 87.1548L26.1875 87.1622ZM69.2805 48.896L69.3522 49.0947L69.3367 49.2912L84.6861 51.3083L84.7314 51.3143L84.7749 51.3007L89.4789 49.8306L89.4228 49.4258L70.7077 48.9152L120.867 34.5038L120.785 34.0991L96.0441 37.1749L96.0141 37.1786L95.9865 37.1907L69.2805 48.896Z" fill="#90F3FF" stroke="white" stroke-width="0.414369"/>
<path d="M58.2575 66.044L58.1275 65.8588L57.9545 66.0046L54.0437 69.2988L53.6876 69.5988L54.1489 69.6625L61.0397 70.6143L61.5109 70.6793L61.2377 70.29L58.2575 66.044ZM104.958 66.3432L104.885 66.2219L104.745 66.2464L100.217 67.0411L99.5882 67.1514L100.161 67.4314L107.27 70.9029L107.902 71.2117L107.538 70.6095L104.958 66.3432ZM90.8268 59.9595L90.865 59.9453L90.3301 59.7563L89.7389 59.5145L89.7654 59.5568L82.9257 57.14L82.3582 56.9395L82.6821 57.4468L85.4476 61.7789L85.5375 61.9198L85.6942 61.8617L90.1702 60.2028L92.7786 64.3657L92.8606 64.4967L93.0096 64.4553L97.6718 63.1602L98.2554 62.9981L97.6948 62.7688L90.8268 59.9595ZM53.5759 84.9244L56.7541 81.4367L57.0371 81.1261L56.6184 81.0907L50.2499 80.5531L49.7931 80.5146L50.066 80.8829L53.0472 84.9069L50.2445 88.4616L49.9079 88.4439L50.0792 88.6713L49.9303 88.86L50.2334 88.876L53.2522 92.8824L53.4156 93.0993L53.5816 92.8843L56.4266 89.2011L56.7572 89.2184L56.5888 88.9911L56.7346 88.8023L56.4373 88.7867L53.5759 84.9244Z" fill="#0C0C0C" stroke="white" stroke-width="0.414369"/>
<path d="M26.1837 87.1539L26.4103 87.5008L26.4133 87.4988L54.2891 69.6316L54.3004 69.6243L54.3108 69.6156L58.2215 66.3215L57.9732 65.9905L26.1867 87.1519L26.1837 87.1539Z" fill="#90F3FF" stroke="white" stroke-width="0.414369"/>
<path d="M75.4058 54.8383L74.9428 54.6966L75.1306 54.9852L70.8002 57.2978L70.335 57.5463L70.8449 57.6809L78.1366 59.6057L78.1903 59.6883L78.2853 59.645L78.7335 59.7633L78.5717 59.5146L82.9426 57.5238L83.4402 57.2972L82.9174 57.1372L75.56 54.8855L75.4975 54.7893L75.4058 54.8383ZM53.7463 77.0238L53.598 76.82L53.4268 77.0049L50.0805 80.6187L49.792 80.9302L50.2151 80.9659L56.5835 81.5035L57.0353 81.5417L56.7684 81.1751L53.7463 77.0238ZM97.7071 62.7742L97.0666 62.4623L97.4399 63.0691L100.076 67.3537L100.15 67.4735L100.288 67.4492L104.817 66.6544L105.446 66.544L104.872 66.2641L97.7071 62.7742Z" fill="#0C0C0C" stroke="white" stroke-width="0.414369"/>
<path d="M109.266 34.7439L109.187 34.3372L102.788 35.4374L102.78 35.4389L102.771 35.441L96.018 37.1798L96.1133 37.5829L109.266 34.7439Z" fill="#90F3FF" stroke="white" stroke-width="0.414369"/>
<path d="M53.5832 92.633L53.4049 92.3963L53.2438 92.6451L50.7734 96.4602L50.4593 96.4546L50.6314 96.6794L50.5081 96.8699L50.781 96.8748L53.8005 100.818L53.9815 101.055L54.1403 100.803L56.553 96.9781L56.8612 96.9836L56.6916 96.7584L56.8115 96.5682L56.5447 96.5635L53.5832 92.633ZM50.2271 72.8937L50.0355 73.0743L50.3881 73.1148L53.4113 77.2677L53.5506 77.459L53.7218 77.2957L57.2763 73.907L57.6436 73.9492L57.4768 73.7159L57.6667 73.5348L57.3186 73.4947L54.3458 69.3367L54.2079 69.1438L54.0352 69.3064L50.4301 72.7025L50.0567 72.6596L50.2271 72.8937Z" fill="#0C0C0C" stroke="white" stroke-width="0.414369"/>
<path d="M26.1867 87.1521L26.4045 87.5045L50.6081 73.0975L50.6276 73.0858L50.6442 73.0702L54.3194 69.6081L54.0655 69.2829L26.1867 87.1521Z" fill="#90F3FF" stroke="white" stroke-width="0.414369"/>
<path d="M104.886 66.2719L104.604 66.5577L107.184 70.824L107.249 70.9311L107.374 70.9236L111.61 70.6683L112.289 70.6275L111.703 70.283L104.886 66.2719ZM87.6854 55.4565L87.5951 55.3124L87.4362 55.3728L82.7832 57.1417L82.2551 57.3425L82.7878 57.5307L90.1826 60.1437L97.5381 63.1524L98.1256 63.3927L97.793 62.8521L95.1093 58.4899L95.0267 58.3557L94.8753 58.3994L90.349 59.7076L87.6854 55.4565ZM54.1296 100.566L53.9285 100.304L53.7799 100.599L51.8035 104.532L51.6532 104.831L51.9878 104.832L56.9898 104.851L57.4114 104.852L57.1551 104.518L54.1296 100.566Z" fill="#0C0C0C" stroke="white" stroke-width="0.414369"/>
<path d="M69.3594 48.8787L69.358 49.293L89.4114 49.8401L89.4377 49.8408L89.4633 49.8349L94.0262 48.7913L93.9758 48.3822L69.3594 48.8787Z" fill="#90F3FF" stroke="white" stroke-width="0.414369"/>
<path d="M80.0308 52.7015L79.5426 52.5288L79.7391 52.8366L75.3405 54.8736L74.849 55.1013L75.3669 55.2598L82.7232 57.5111L82.7729 57.5889L82.8641 57.5542L83.3342 57.6981L83.1685 57.4385L87.4245 55.8205L90.0808 60.06L90.1638 60.1924L90.3139 60.149L94.9904 58.7975L95.5629 58.632L95.0112 58.4066L88.0746 55.5733L88.1113 55.5594L87.5836 55.3728L86.9928 55.1314L87.0188 55.173L80.1776 52.7534L80.1185 52.6608L80.0308 52.7015ZM51.9894 104.418L51.564 104.416L51.825 104.752L54.9083 108.72L55.1127 108.983L55.2583 108.684L57.1769 104.734L57.321 104.438L56.9913 104.436L51.9894 104.418ZM102.332 61.9995L102.257 61.8765L102.116 61.9031L97.5782 62.757L96.963 62.8727L97.5258 63.1469L104.69 66.6367L105.322 66.9443L104.959 66.3432L102.332 61.9995Z" fill="#0C0C0C" stroke="white" stroke-width="0.414369"/>
<path d="M26.1926 87.1486L26.3939 87.5106L47.1965 76.7169L47.2278 76.7006L47.2519 76.675L50.653 73.0616L50.3961 72.7416L26.1926 87.1486Z" fill="#90F3FF" stroke="white" stroke-width="0.414369"/>
<path d="M50.5012 80.7743L53.6612 77.3617L54.0167 77.3953L53.8466 77.1616L54.0156 76.979L53.6913 76.9483L50.6695 72.7975L50.5225 72.5954L50.3512 72.7774L47.0196 76.3169L46.6579 76.2827L46.8314 76.5169L46.6599 76.6991L46.9895 76.7303L49.9707 80.7543L47.1139 84.3025L46.7707 84.2802L46.9453 84.5119L46.7961 84.6971L47.0996 84.7168L50.087 88.6816L47.6395 92.3623L47.3177 92.3518L47.4936 92.5816L47.3696 92.7681L47.6433 92.777L50.6401 96.6908L48.6648 100.489L48.511 100.784L48.8442 100.791L53.9606 100.899L54.3915 100.909L54.1295 100.566L51.138 96.6595L53.528 92.9686L53.8437 92.9789L53.6703 92.7487L53.7909 92.5626L53.5235 92.5539L50.6024 88.677L53.4033 85.1246L53.7404 85.1464L53.5688 84.9147L53.7148 84.7295L53.4173 84.7103L50.5012 80.7743ZM95.0233 58.4121L94.3837 58.1013L94.7563 58.707L97.44 63.0691L97.5147 63.1906L97.6547 63.1642L102.051 62.3369L104.429 66.2688L104.105 66.2928L104.631 66.6025L104.67 66.6665L104.732 66.6618L111.493 70.64L111.776 70.3555L109.372 66.3179L109.7 66.2936L109.173 65.9843L109.135 65.92L109.071 65.9247L102.736 62.208L102.809 62.1944L102.245 61.9204L95.0233 58.4121ZM84.8886 50.9929L84.7975 50.8476L84.6377 50.9099L79.9659 52.7319L79.4467 52.9344L79.9721 53.1202L87.4406 55.7617L88.0007 55.9598L87.6853 55.4564L84.8886 50.9929Z" fill="#0C0C0C" stroke="white" stroke-width="0.414369"/>
<path d="M26.2031 87.1426L26.3751 87.519L44.0939 80.4743L44.1435 80.4546L44.1774 80.4134L47.2611 76.6644L47.0056 76.3489L26.2031 87.1426Z" fill="#90F3FF" stroke="white" stroke-width="0.414369"/>
<path d="M92.3765 54.048L92.2931 53.9123L92.1404 53.9582L87.4501 55.368L86.889 55.5367L87.4314 55.7582L94.8544 58.7902L95.4416 59.03L95.1092 58.4899L92.3765 54.048Z" fill="#0C0C0C" stroke="white" stroke-width="0.414369"/>
<path d="M69.3559 48.8787L69.3678 49.2929L69.3713 49.2928L93.9842 48.7963L93.996 48.7961L94.0077 48.7945L98.2599 48.2213L98.2246 47.809L69.3594 48.8786L69.3559 48.8787Z" fill="#90F3FF" stroke="white" stroke-width="0.414369"/>
<path d="M48.8531 100.377L48.4182 100.368L48.6851 100.711L51.825 104.752L52.0263 105.011L52.1737 104.718L54.1502 100.785L54.2975 100.492L53.9694 100.485L48.8531 100.377ZM99.6568 57.5761L99.5815 57.4514L99.4387 57.4802L94.892 58.3951L94.29 58.5163L94.8423 58.7846L102.064 62.2929L102.695 62.5993L102.332 61.9994L99.6568 57.5761ZM84.7913 50.9109L84.1963 50.6682L84.5375 51.2128L87.3342 55.6763L87.4181 55.8102L87.5694 55.7647L92.2598 54.3548L92.8214 54.186L92.2784 53.9646L84.7913 50.9109Z" fill="#0C0C0C" stroke="white" stroke-width="0.414369"/>
<path d="M26.4789 87.4281L26.1227 87.2166L22.5659 92.9093L22.5608 92.9175L22.5565 92.9261L19.7765 98.4667L20.1421 98.6614L26.4789 87.4281Z" fill="#90F3FF" stroke="white" stroke-width="0.414369"/>
<path d="M109.178 65.9917L106.577 61.625L106.511 61.5131L106.381 61.5246L102.136 61.9003L101.491 61.9574L102.05 62.2853L108.872 66.2877L111.42 70.5674L111.476 70.662L111.586 70.6683L115.514 70.891L116.242 70.9322L115.645 70.5143L109.178 65.9917ZM47.2675 76.4093L47.1095 76.1961L46.941 76.401L43.9258 80.0668L43.5758 80.0399L43.7537 80.276L43.6043 80.4576L43.9082 80.481L46.9529 84.522L44.4479 88.1887L44.1182 88.1731L44.298 88.408L44.1733 88.5906L44.4477 88.6035L47.5836 92.699L47.76 92.9293L47.9206 92.6877L50.4483 88.8865L50.7718 88.9018L50.5946 88.6666L50.7158 88.4843L50.4478 88.4717L47.4705 84.5203L50.3255 80.9744L50.6692 81.0009L50.4943 80.7648L50.6406 80.5831L50.3427 80.5602L47.2675 76.4093ZM52.1521 104.498L51.923 104.203L51.7941 104.553L50.4502 108.207L50.1524 108.195L50.3582 108.457L50.2998 108.616L50.489 108.623L53.5702 112.538L53.8036 112.835L53.9285 112.479L55.2167 108.806L55.5085 108.817L55.3048 108.555L55.3602 108.397L55.1763 108.39L52.1521 104.498ZM92.2904 53.97L91.6518 53.6606L92.0236 54.2651L94.7563 58.7069L94.832 58.83L94.9737 58.8014L99.5204 57.8865L100.123 57.7651L99.5698 57.4969L92.2904 53.97Z" fill="#0C0C0C" stroke="white" stroke-width="0.414369"/>
<path d="M26.222 87.1339L26.3414 87.5291L41.3427 84.3543L41.4225 84.3374L41.4694 84.2706L44.1869 80.4007L44.5858 79.8327L43.9408 80.0891L26.222 87.1339Z" fill="#90F3FF" stroke="white" stroke-width="0.414369"/>
<path d="M99.5841 57.5045L99.3022 57.7906L101.977 62.2138L102.044 62.3244L102.173 62.313L106.417 61.9374L107.064 61.8801L106.504 61.5522L99.5841 57.5045Z" fill="#0C0C0C" stroke="white" stroke-width="0.414369"/>
<path d="M120.918 34.4818L120.753 34.1055L69.3064 48.8866L69.3713 49.2928L98.24 48.2231L98.2938 48.2211L98.3399 48.1931L120.918 34.4818Z" fill="#90F3FF" stroke="white" stroke-width="0.414369"/>
<path d="M47.9126 92.4472L47.7177 92.1926L47.5657 92.4749L45.4681 96.3701L45.3106 96.6626L45.6426 96.6754L50.8768 96.8765L51.3172 96.8934L51.0492 96.5435L47.9126 92.4472ZM89.5935 49.5243L89.5091 49.3871L89.3553 49.4351L84.6513 50.9052L84.1011 51.0771L84.6348 51.2948L92.1219 54.3484L92.7086 54.5877L92.3766 54.048L89.5935 49.5243Z" fill="#0C0C0C" stroke="white" stroke-width="0.414369"/>
<path d="M120.836 34.5103L120.806 34.0975L109.218 34.3343L109.198 34.3347L109.179 34.3389L96.026 37.1779L96.0953 37.5861L120.836 34.5103Z" fill="#90F3FF" stroke="white" stroke-width="0.414369"/>
<path d="M45.6585 96.2612L45.214 96.2441L45.4869 96.5954L48.6132 100.619L47.2549 104.139L46.9461 104.121L47.1581 104.391L47.0984 104.545L47.2886 104.556L50.4298 108.548L50.6591 108.839L50.7871 108.491L52.1299 104.841L52.4324 104.859L52.2227 104.589L52.2794 104.435L52.0945 104.424L49.0937 100.562L51.0685 96.765L51.2194 96.4749L50.8927 96.4624L45.6585 96.2612ZM113.321 66.5209L113.651 66.5345L113.105 66.1541L113.071 66.0958L113.018 66.0937L106.554 61.5867L103.905 57.1383L103.838 57.0246L103.706 57.0382L99.5888 57.4638L97.0829 53.3199L97.3885 53.2542L96.9006 53.0185L96.856 52.9448L96.7812 52.9608L89.5072 49.4463L88.8695 49.1382L89.2406 49.7414L91.8701 54.0155L91.5678 54.0804L92.0553 54.3166L92.1004 54.3899L92.1739 54.3741L99.3819 57.8663L106.249 61.8829L108.648 65.9132L108.323 65.8998L108.867 66.2803L108.902 66.3384L108.953 66.3405L115.407 70.8539L115.705 70.5792L113.321 66.5209ZM44.1828 80.157L44.0114 79.9295L43.8478 80.1626L41.1968 83.9377L40.8591 83.9168L41.0429 84.1569L40.9174 84.3356L41.1927 84.3526L44.3892 88.5271L44.5632 88.7544L44.7247 88.518L47.3126 84.7301L47.644 84.7506L47.4628 84.5102L47.5847 84.3318L47.3159 84.3152L44.1828 80.157Z" fill="#0C0C0C" stroke="white" stroke-width="0.414369"/>
<path d="M39.0625 88.2106L39.1893 88.2173L39.2528 88.1074L41.4793 84.2553L41.712 83.8526L41.257 83.9489L26.2557 87.1237L26.2876 87.5333L39.0625 88.2106Z" fill="#90F3FF" stroke="white" stroke-width="0.414369"/>
<path d="M89.327 49.8194L96.6098 53.3381L99.3023 57.7906L99.3703 57.903L99.5009 57.8895L103.617 57.4639L106.029 61.5144L105.715 61.5065L106.244 61.8754L106.28 61.9352L106.332 61.9366L112.794 66.4422L115.348 70.7891L115.395 70.8696L115.487 70.8875L119.073 71.5862L119.244 71.223L113.11 66.1616L110.692 62.0468L111.011 62.0549L110.48 61.6861L110.445 61.6261L110.392 61.6248L104.304 57.3929L104.38 57.385L103.878 57.0922L101.184 52.5674L101.115 52.4518L100.981 52.4676L96.8634 52.9568L94.1574 48.482L94.0799 48.3538L93.9339 48.3872L89.371 49.4308L88.7954 49.5625L89.327 49.8194ZM44.7183 88.2752L44.5265 88.0247L44.3728 88.3002L42.2749 92.0614L41.95 92.0434L42.145 92.2943L42.0504 92.464L42.2871 92.4771L45.4138 96.5011L43.9998 99.9956L43.6796 99.9704L43.8978 100.248L43.8368 100.398L44.0282 100.413L47.2311 104.483L47.4562 104.769L47.5872 104.43L48.9864 100.803L49.3001 100.827L49.0841 100.549L49.1421 100.399L48.9562 100.385L45.897 96.4477L47.8682 92.7872L48.1867 92.8049L47.9941 92.5534L48.0852 92.3842L47.8548 92.3714L44.7183 88.2752ZM50.7555 108.292L50.4856 107.949L50.3905 108.375L49.6201 111.826L49.3186 111.799L49.5588 112.101L49.529 112.234L49.6756 112.248L52.8164 116.196L53.092 116.543L53.1815 116.109L53.8986 112.633L54.1936 112.66L53.9555 112.358L53.9829 112.225L53.8408 112.212L50.7555 108.292Z" fill="#0C0C0C" stroke="white" stroke-width="0.414369"/>
<path d="M37.354 91.8867L37.5383 91.959L37.6189 91.7781L39.2626 88.088L39.3852 87.8128L39.0843 87.7968L26.3095 87.1195L26.2228 87.5193L37.354 91.8867Z" fill="#90F3FF" stroke="white" stroke-width="0.414369"/>
<path d="M116.933 67.218L117.272 67.2784L116.69 66.7994L116.66 66.7486L116.619 66.7413L110.456 61.6705L110.146 61.9354L112.543 66.0155L112.209 65.956L112.789 66.4348L112.819 66.4855L112.859 66.4927L118.98 71.5428L119.291 71.2789L116.933 67.218ZM94.084 48.4102L93.8026 48.6965L96.5778 53.2857L96.6469 53.4L96.7795 53.3842L101.03 52.8793L101.646 52.8061L101.11 52.4944L94.084 48.4102ZM41.4642 84.0258L41.2756 83.7794L41.1203 84.048L38.8939 87.9001L38.7283 88.1865L39.0583 88.2104L44.5386 88.6079L44.9983 88.6413L44.7181 88.2753L41.4642 84.0258Z" fill="#0C0C0C" stroke="white" stroke-width="0.414369"/>
<path d="M26.4884 87.4091L26.118 87.2246L19.7813 98.4579L19.7698 98.4782L19.7632 98.5006L16.648 108.982L17.0366 109.124L26.4884 87.4091Z" fill="#90F3FF" stroke="white" stroke-width="0.414369"/>
<path d="M47.5565 104.227L47.2923 103.891L47.1923 104.307L46.3245 107.907L46.2696 108.135L46.5024 108.161L50.569 108.626L51.0625 108.682L50.7553 108.292L47.5565 104.227ZM39.0882 87.7972L38.6241 87.7635L38.9096 88.1309L42.2289 92.4028L42.421 92.65L42.5735 92.3766L44.7345 88.5022L44.8929 88.2182L44.5685 88.1947L39.0882 87.7972Z" fill="#0C0C0C" stroke="white" stroke-width="0.414369"/>
<path d="M120.814 34.5117L120.818 34.0975L115.242 33.8826L115.23 33.8822L115.219 33.8831L109.207 34.3347L109.227 34.7485L120.814 34.5117Z" fill="#90F3FF" stroke="white" stroke-width="0.414369"/>
<path d="M108.014 57.4888L108.322 57.4915L107.806 57.1342L107.77 57.0723L107.716 57.0719L101.161 52.5289L98.4104 47.9102L98.3403 47.7926L98.2047 47.8109L93.9524 48.3841L93.3535 48.4648L93.8759 48.7685L100.855 52.8257L103.361 57.0341L103.058 57.0314L103.572 57.389L103.609 57.4506L103.662 57.4511L110.2 61.9958L116.369 67.0721L118.933 71.4871L118.971 71.5518L119.041 71.5775L122.245 72.7519L122.461 72.4088L116.694 66.807L114.077 62.3002L114.028 62.2152L113.931 62.1997L110.454 61.6414L108.014 57.4888ZM46.5497 107.75L46.0525 107.693L46.364 108.085L49.5708 112.116L49.3606 115.467L49.3489 115.653L49.5322 115.684L52.9434 116.272L53.4791 116.364L53.1407 115.938L50.0064 111.998L50.7949 108.465L50.8451 108.24L50.6162 108.214L46.5497 107.75ZM42.5563 92.1486L42.3399 91.87L42.202 92.1947L40.6829 95.7735L40.3509 95.741L40.5755 96.0264L40.5132 96.1732L40.706 96.1921L43.9721 100.342L44.193 100.623L44.327 100.292L45.7846 96.6897L46.1097 96.7216L45.8874 96.4355L45.9466 96.2893L45.7595 96.2709L42.5563 92.1486Z" fill="#0C0C0C" stroke="white" stroke-width="0.414369"/>
<path d="M36.249 95.3591L36.4877 95.5455L36.5749 95.2555L37.6281 91.7535L37.6831 91.5707L37.5054 91.5009L26.3742 87.1335L26.171 87.4897L36.249 95.3591Z" fill="#90F3FF" stroke="white" stroke-width="0.414369"/>
<path d="M49.7856 115.307L49.9744 112.298L50.2959 112.362L49.9942 111.983L50.0006 111.881L49.8972 111.861L46.7511 107.906L47.5513 104.586L47.8735 104.63L47.6187 104.306L47.6488 104.181L47.5047 104.161L44.6246 100.501L44.2976 100.086L44.0393 99.7576L41.0526 95.9624L42.5226 92.4993L42.8596 92.5388L42.6308 92.2444L42.6914 92.1019L42.5029 92.0798L39.2368 87.8765L39.0247 87.6034L38.884 87.9193L37.3023 91.4702L36.9583 91.4299L37.1894 91.7236L37.1257 91.8667L37.32 91.8895L40.5861 96.0398L39.6253 99.4751L39.5626 99.6992L39.7924 99.7356L43.8768 100.383L43.0531 103.553L42.7238 103.508L42.9808 103.831L42.9482 103.957L43.097 103.977L46.313 108.02L46.0672 111.104L45.7382 111.039L46.0422 111.417L46.0341 111.519L46.1409 111.541L49.0633 115.183L49.4056 115.61L49.7405 116.027L52.6551 119.66L52.9981 120.087L53.0237 119.54L53.1854 116.077L53.1939 115.894L53.0136 115.863L49.7856 115.307ZM107.495 57.4225L107.522 57.4693L110.146 61.9352L110.195 62.0194L110.292 62.0348L113.768 62.593L116.35 67.0396L116.389 67.1059L116.418 67.1161L122.172 72.7058L122.496 72.4538L119.902 67.9454L119.863 67.8786L119.834 67.8682L114.514 62.7128L114.622 62.7301L114.058 62.2676L111.609 58.051L111.921 58.0954L111.376 57.6492L111.344 57.5948L111.302 57.5887L105.5 52.8419L105.582 52.8412L105.081 52.4952L105.043 52.4314L102.327 47.807L102.265 47.7016L102.142 47.7048L98.2267 47.8089L97.5922 47.8257L98.0773 48.1608L100.643 52.4693L100.351 52.4718L100.851 52.818L100.888 52.8815L100.942 52.8811L107.495 57.4225Z" fill="#0C0C0C" stroke="white" stroke-width="0.414369"/>
<path d="M20.1604 98.6187L19.7674 98.4879L17.79 103.843L17.7851 103.857L17.7821 103.87L16.6444 108.996L17.0452 109.1L20.1604 98.6187Z" fill="#90F3FF" stroke="white" stroke-width="0.414369"/>
<path d="M39.8574 99.3265L39.3311 99.2431L39.6628 99.6601L43.0454 103.913L43.3037 104.237L43.4081 103.836L44.3355 100.266L44.3929 100.045L44.1674 100.009L39.8574 99.3265ZM119.879 67.9128L119.543 68.1523L122.137 72.6607L122.164 72.7077L122.211 72.7354L124.986 74.386L125.248 74.0718L119.879 67.9128Z" fill="#0C0C0C" stroke="white" stroke-width="0.414369"/>
<path d="M120.932 34.4718L120.703 34.1273L98.1247 47.8387L97.4579 48.2436L98.2377 48.2229L102.154 48.1189L102.218 48.1171L102.27 48.0792L120.932 34.4718Z" fill="#90F3FF" stroke="white" stroke-width="0.414369"/>
<path d="M49.7289 115.35L49.2729 114.782L46.4684 111.286L46.7137 108.209L47.0529 108.285L46.7391 107.89L46.747 107.792L46.6426 107.769L43.3696 103.654L43.0511 103.254L43.0013 103.763L42.6957 106.891L42.3485 106.813L42.6647 107.208L42.6551 107.306L42.7631 107.33L46.0559 111.434L46.3887 114.528L46.403 114.661L46.5302 114.703L49.3777 115.636L49.7149 118.383L49.3774 118.282L49.7608 118.757L49.7701 118.833L49.8383 118.853L53.098 122.89L53.5654 123.469L53.4645 122.732L53.0658 119.821L53.3952 119.92L53.0143 119.445L53.004 119.37L52.9381 119.35L50.165 115.894L49.7289 115.35ZM122.614 69.477L117.248 63.3325L117.218 63.2815L117.188 63.2716L111.38 57.6567L108.87 53.3348L109.169 53.3717L108.642 52.9415L108.609 52.8851L108.566 52.8798L102.279 47.7514L101.969 48.0169L104.534 52.3826L104.24 52.3463L104.766 52.7765L104.799 52.8327L104.841 52.8379L111.055 57.9222L113.719 62.508L113.758 62.576L113.788 62.5858L119.557 68.1773L119.571 68.2004L119.589 68.211L124.936 74.3439L125.272 74.1049L122.661 69.5364L122.633 69.4877L122.614 69.477ZM37.5925 91.5656L37.346 91.2524L37.2313 91.634L36.2313 94.9591L35.8722 94.8944L36.1469 95.2398L36.1112 95.3585L36.263 95.3858L39.6628 99.6599L39.9152 99.9772L40.0245 99.5867L40.9629 96.2315L41.3142 96.2947L41.0419 95.9487L41.075 95.8306L40.9282 95.8042L37.5925 91.5656Z" fill="#0C0C0C" stroke="white" stroke-width="0.414369"/>
<path d="M120.951 34.4567L120.688 34.1372L102.026 47.7445L101.59 48.0625L102.127 48.118L105.673 48.4849L105.766 48.4945L105.835 48.4309L120.951 34.4567Z" fill="#90F3FF" stroke="white" stroke-width="0.414369"/>
<path d="M119.951 64.8177L114.552 58.6477L114.521 58.595L111.813 53.8887L111.772 53.8163L111.691 53.7931L108.619 52.9023L105.874 48.1747L105.821 48.0836L105.716 48.0727L102.169 47.7058L101.48 47.6345L102.017 48.0725L108.321 53.2148L111.036 57.8897L111.077 57.9596L111.107 57.9689L116.913 63.5821L116.927 63.6065L116.946 63.6169L122.311 69.76L124.912 74.3106L124.928 74.3381L124.951 74.3596L127.244 76.4867L127.552 76.2124L122.655 69.5263L119.998 64.8784L119.97 64.8283L119.951 64.8177ZM46.6593 114.309L45.9933 114.091L46.4335 114.636L49.7754 118.775L50.7767 121.651L50.8039 121.729L50.8388 121.747L54.1579 125.842L54.5139 125.642L53.4542 122.69L53.4267 122.613L53.393 122.596L50.1577 118.589L49.773 115.455L49.757 115.324L49.6319 115.283L46.6593 114.309ZM39.9871 99.4019L39.677 99.0121L39.6192 99.5068L39.2583 102.596L38.8922 102.505L39.2209 102.915L39.2098 103.01L39.3191 103.037L42.6785 107.225L42.9575 110.275L42.9696 110.407L43.0946 110.452L46.1862 111.547L46.8729 111.791L46.417 111.222L43.0936 107.08L43.3905 104.042L43.7481 104.13L43.4219 103.72L43.4312 103.625L43.3257 103.599L39.9871 99.4019Z" fill="#0C0C0C" stroke="white" stroke-width="0.414369"/>
<path d="M120.971 34.4348L120.67 34.1524L105.554 48.1266L105.278 48.3815L105.641 48.4789L108.777 49.3207L108.907 49.3556L108.992 49.2508L120.971 34.4348Z" fill="#90F3FF" stroke="white" stroke-width="0.414369"/>
<path d="M105.838 48.1296L105.515 48.3829L108.302 53.1823L108.344 53.2541L108.424 53.2772L111.576 54.1912L111.777 53.8428L105.838 48.1296ZM43.233 110.061L42.5422 109.817L43.0026 110.387L46.4102 114.607L47.3629 117.438L47.3889 117.516L47.4605 117.554L49.8605 118.855L50.1204 118.543L46.7942 114.423L46.4614 111.33L46.4474 111.2L46.3246 111.157L43.233 110.061ZM36.5387 95.0668L36.2371 94.6877L36.1713 95.1676L35.753 98.2162L35.3672 98.1119L35.7089 98.5377L35.6962 98.63L35.8069 98.66L39.2752 102.983L39.5851 103.369L39.6425 102.877L40.0028 99.7937L40.3796 99.8955L40.0407 99.4694L40.0515 99.3776L39.9447 99.3487L36.5387 95.0668ZM124.931 71.6058L124.915 71.5773L124.906 71.5691L119.986 64.8587L119.639 65.0841L122.301 69.7421L122.317 69.7705L122.326 69.7785L127.218 76.4573L127.565 76.2324L124.931 71.6058Z" fill="#0C0C0C" stroke="white" stroke-width="0.414369"/>
<path d="M130.33 37.038L130.454 36.6429L125.957 35.0157L125.941 35.0097L125.923 35.0066L120.847 34.1005L120.757 34.5048L130.33 37.038Z" fill="#90F3FF" stroke="white" stroke-width="0.414369"/>
<path d="M117.283 60.1282L117.254 60.0766L117.235 60.0663L111.803 53.871L109.01 49.0173L108.967 48.9428L108.884 48.9206L105.748 48.0788L105.551 48.4282L111.469 54.121L114.203 58.8722L114.232 58.9234L114.251 58.9336L119.663 65.1177L119.998 64.8785L117.283 60.1282ZM47.658 117.19L47.3983 117.503L50.8114 121.714L51.168 121.515L50.1549 118.605L50.1285 118.529L50.058 118.491L47.658 117.19ZM39.5984 102.724L39.1808 102.203L39.2301 102.869L39.4578 105.938L39.4676 106.069L39.5909 106.116L42.8056 107.338L43.517 107.608L43.0408 107.014L39.5984 102.724Z" fill="#0C0C0C" stroke="white" stroke-width="0.414369"/>
<path d="M36.5636 95.2849L36.6351 95.1349L36.5041 95.0325L26.4261 87.1631L26.1359 86.9365L26.0928 87.3022L21.5563 125.848L21.9491 125.961L36.5636 95.2849Z" fill="#90F3FF" stroke="white" stroke-width="0.414369"/>
<path d="M39.738 105.729L39.0222 105.457L39.5032 106.053L43.0025 110.387L43.4324 110.919L43.37 110.238L43.0854 107.125L43.0736 106.996L42.9527 106.95L39.738 105.729Z" fill="#0C0C0C" stroke="white" stroke-width="0.414369"/>
<path d="M26.5043 87.3506L26.1086 87.2437L16.6567 108.958L16.6268 109.027L16.6478 109.099L21.5632 125.93L21.9678 125.896L26.5043 87.3506ZM120.99 34.4082L120.649 34.1744L108.669 48.9904L108.507 49.1919L108.739 49.3065L111.417 50.6286L111.592 50.7146L111.689 50.5463L120.99 34.4082Z" fill="#90F3FF" stroke="white" stroke-width="0.414369"/>
<path d="M122.245 66.8871L122.244 66.8846L122.228 66.8576L122.219 66.8495L117.278 60.118L114.514 55.2831L114.484 55.2299L114.464 55.2197L108.986 48.984L108.651 49.2241L111.454 54.0956L111.485 54.1484L111.504 54.1583L116.934 60.352L119.639 65.0841L119.655 65.1133L119.664 65.1213L124.577 71.8212L127.205 76.4374L127.209 76.4442L127.213 76.4506L128.964 79.0529L129.182 78.9134L129.316 78.8349L129.313 78.8299L126.653 74.1535L126.65 74.1485L126.649 74.1465L126.648 74.1441L122.245 66.8871ZM49.0239 120.051L50.812 121.717L52.4471 124.27L52.4618 124.293L52.4704 124.301L55.8487 128.464L56.1837 128.221L54.493 125.6L54.4785 125.577L54.4702 125.569L51.1334 121.453L47.7438 117.271L46.7911 114.44L46.7659 114.365L46.7313 114.345L43.3251 110.126L42.9668 110.321L43.8806 113.141L43.9054 113.217L43.9414 113.238L47.3909 117.494L48.9903 120.011L49.0045 120.033L49.0239 120.051ZM36.0879 98.348L35.6835 97.8439L35.7194 98.4892L35.8697 101.187L35.4313 101.009L35.8916 101.579L35.8952 101.644L35.9673 101.673L39.5033 106.053L39.9202 106.569L39.8711 105.907L39.6681 103.17L40.0956 103.343L39.6387 102.774L39.6339 102.709L39.5646 102.681L36.0879 98.348Z" fill="#0C0C0C" stroke="white" stroke-width="0.414369"/>
<path d="M121.003 34.3811L120.631 34.2011L111.33 50.3393L111.243 50.4902L111.376 50.6018L113.542 52.4101L113.762 52.5934L113.868 52.3276L121.003 34.3811Z" fill="#90F3FF" stroke="white" stroke-width="0.414369"/>
<path d="M119.505 62.0732L119.487 62.0428L119.478 62.0347L114.508 55.2727L111.689 50.34L111.657 50.2851L111.601 50.2571L108.922 48.9349L108.675 49.2575L114.165 55.5069L116.924 60.3339L116.941 60.3641L116.95 60.372L121.898 67.1122L122.245 66.8871L119.505 62.0732ZM49.3061 119.748L49.004 120.03L52.4605 124.289L52.7959 124.047L51.1467 121.471L51.1325 121.449L51.1134 121.432L49.3061 119.748ZM39.8255 105.792L39.4664 105.984L40.3273 108.756L40.351 108.832L40.3876 108.854L43.9165 113.207L44.2746 113.013L43.3607 110.193L43.3366 110.118L43.3014 110.097L39.8255 105.792Z" fill="#0C0C0C" stroke="white" stroke-width="0.414369"/>
<path d="M17.0535 109.031L16.6397 109.03L16.389 113.868L16.3879 113.89L16.3912 113.911L17.084 118.39L17.4957 118.348L17.0535 109.031Z" fill="#90F3FF" stroke="white" stroke-width="0.414369"/>
<path d="M123.937 69.3772L123.933 69.37L123.931 69.3676L119.502 62.0683L119.145 62.2782L121.885 67.0921L121.889 67.0992L121.891 67.1016L126.296 74.3634L126.653 74.1536L123.937 69.3772ZM44.2385 112.947L43.9023 113.187L45.4625 115.664L45.4765 115.686L45.4954 115.704L47.4168 117.523L47.7202 117.242L44.2385 112.947Z" fill="#0C0C0C" stroke="white" stroke-width="0.414369"/>
<path d="M137.136 42.5782L137.358 42.2314L130.514 36.6769L130.479 36.6488L130.436 36.6374L120.863 34.1042L120.719 34.4904L137.136 42.5782Z" fill="#90F3FF" stroke="white" stroke-width="0.414369"/>
<path d="M116.709 57.1615L116.691 57.1301L116.681 57.122L111.676 50.3201L111.329 50.5457L114.154 55.4888L114.172 55.52L114.181 55.5279L119.158 62.2985L119.505 62.0733L116.709 57.1615ZM45.7802 115.403L45.4769 115.684L49.004 120.03L49.3398 119.789L47.734 117.261L47.7202 117.24L47.7015 117.222L45.7802 115.403ZM36.2557 101.371L35.8958 101.56L36.7014 104.281L36.7239 104.357L36.7915 104.398L39.5557 106.099L39.8255 105.792L36.2557 101.371Z" fill="#0C0C0C" stroke="white" stroke-width="0.414369"/>
<path d="M121.01 34.3593L120.618 34.228L113.482 52.1745L113.441 52.2776L113.505 52.3689L115.097 54.6685L115.35 55.0337L115.467 54.6053L121.01 34.3593Z" fill="#90F3FF" stroke="white" stroke-width="0.414369"/>
<path d="M37.0088 104.045L36.7392 104.352L40.3643 108.825L40.7232 108.633L39.8623 105.861L39.8392 105.787L39.773 105.746L37.0088 104.045ZM121.165 64.5029L121.161 64.4955L121.159 64.493L116.706 57.1564L116.349 57.3664L119.145 62.2782L119.149 62.2856L119.151 62.288L123.58 69.5871L123.937 69.3772L121.165 64.5029Z" fill="#0C0C0C" stroke="white" stroke-width="0.414369"/>
<path d="M36.1103 98.5727L36.1267 98.5411L36.1315 98.5058L36.5818 95.224L36.1895 95.1067L21.575 125.783L21.9461 125.967L36.1103 98.5727Z" fill="#90F3FF" stroke="white" stroke-width="0.414369"/>
<path d="M40.6863 108.564L40.3496 108.804L41.8621 111.228L41.8758 111.25L41.8851 111.259L45.4771 115.684L45.8132 115.443L44.253 112.967L44.2395 112.945L44.2305 112.937L40.6863 108.564ZM113.855 52.1487L113.837 52.1162L113.808 52.0922L111.642 50.2839L111.342 50.5658L116.362 57.3868L116.709 57.1615L113.855 52.1487Z" fill="#0C0C0C" stroke="white" stroke-width="0.414369"/>
<path d="M121.013 34.3451L120.61 34.2499L115.067 54.4958L115.051 54.5571L115.071 54.6173L116.022 57.4112L116.27 58.1416L116.421 57.385L121.013 34.3451Z" fill="#90F3FF" stroke="white" stroke-width="0.414369"/>
<path d="M118.336 59.5277L118.332 59.52L118.33 59.5176L113.852 52.1437L113.495 52.3537L116.349 57.3665L116.353 57.3741L116.355 57.3765L120.808 64.7129L121.165 64.503L118.336 59.5277ZM37.0612 104.092L36.724 104.331L38.1864 106.699L38.1999 106.72L38.2182 106.738L40.3809 108.843L40.6863 108.564L37.0612 104.092Z" fill="#0C0C0C" stroke="white" stroke-width="0.414369"/>
<path d="M36.2733 101.606L36.305 101.552L36.3016 101.49L36.1331 98.4661L36.0909 97.7081L35.7422 98.3825L21.578 125.777L21.9406 125.977L36.2733 101.606Z" fill="#90F3FF" stroke="white" stroke-width="0.414369"/>
<path d="M38.507 106.441L38.2017 106.72L41.8769 111.249L42.2135 111.008L40.701 108.585L40.6877 108.563L40.6697 108.546L38.507 106.441Z" fill="#0C0C0C" stroke="white" stroke-width="0.414369"/>
<path d="M17.0455 108.983L16.6396 109.051L17.0818 118.368L17.0843 118.42L17.1108 118.464L21.5839 125.978L21.9608 125.814L17.0455 108.983ZM137.097 42.5533L137.377 42.2495L134.352 39.077L134.334 39.058L134.312 39.0442L130.493 36.6621L130.253 36.9987L137.097 42.5533ZM121.015 34.3384L120.607 34.2641L116.015 57.304L116.009 57.3315L116.011 57.3594L116.248 60.6474L116.659 60.6664L121.013 34.3451L121.015 34.3384Z" fill="#90F3FF" stroke="white" stroke-width="0.414369"/>
<path d="M115.447 54.4482L115.443 54.4403L115.438 54.4327L113.845 52.1332L113.498 52.3586L117.979 59.7375L118.336 59.5276L115.447 54.4482Z" fill="#0C0C0C" stroke="white" stroke-width="0.414369"/>
<path d="M37.0698 104.341L37.127 104.259L37.0987 104.163L36.2931 101.442L36.1577 100.985L35.9159 101.396L21.5832 125.767L21.9316 125.991L37.0698 104.341Z" fill="#90F3FF" stroke="white" stroke-width="0.414369"/>
<path d="M37.4292 143.194L37.1328 143.483L40.8141 147.626L40.8272 147.641L40.8429 147.653L45.0589 150.888L45.3265 150.572L37.4292 143.194Z" fill="#0C0C0C" stroke="white" stroke-width="0.414369"/>
<path d="M121.015 34.338L120.606 34.2708L120.606 34.2713L116.251 60.5987L116.251 60.5987L116.25 60.6026L115.698 64.376L115.698 64.3794L116.107 64.4427L116.108 64.4393L121.015 34.3384L121.015 34.338ZM38.5197 106.725L38.6187 106.61L38.5389 106.481L37.0765 104.113L36.9109 103.845L36.7304 104.103L21.5922 125.753L21.919 126.007L38.5197 106.725Z" fill="#90F3FF" stroke="white" stroke-width="0.414369"/>
<path d="M150.179 67.1681L149.793 67.3113L151.006 72.307L150.949 72.3186L151.063 72.54L151.104 72.7099L151.146 72.7015L153.657 77.5862L154.042 77.4413L152.777 72.3703L152.832 72.3591L152.718 72.1372L152.676 71.9679L152.636 71.976L150.179 67.1681ZM33.6703 138.963L33.3741 139.253L37.1329 143.483L37.1464 143.498L37.1541 143.504L45.0437 150.875L45.3403 150.586L41.6058 146.367L41.5922 146.352L41.5843 146.346L33.6703 138.963Z" fill="#0C0C0C" stroke="white" stroke-width="0.414369"/>
<path d="M17.4667 118.252L17.0978 118.438L18.7973 122.47L18.8084 122.497L18.8262 122.519L21.5998 126.001L21.9399 125.766L17.4667 118.252Z" fill="#90F3FF" stroke="white" stroke-width="0.414369"/>
<path d="M147.596 62.1155L147.21 62.2574L148.417 67.3814L148.457 67.5497L148.63 67.5407L150.005 67.4694L150.324 67.4528L150.178 67.1682L147.596 62.1155Z" fill="#0C0C0C" stroke="white" stroke-width="0.414369"/>
<path d="M40.6421 108.7L40.8075 108.547L40.6414 108.395L38.5025 106.437L38.3449 106.293L38.2056 106.454L21.6049 125.737L21.9026 126.024L40.6421 108.7Z" fill="#90F3FF" stroke="white" stroke-width="0.414369"/>
<path d="M29.8313 134.643L29.5352 134.932L33.374 139.253L33.3879 139.268L33.4046 139.281L37.511 142.36L37.7765 142.043L29.8313 134.643Z" fill="#0C0C0C" stroke="white" stroke-width="0.414369"/>
<path d="M138.319 63.6884L138.703 63.5689L137.434 42.38L137.427 42.2598L137.319 42.2065L120.902 34.1187L120.267 33.806L120.633 34.4117L138.319 63.6884Z" fill="#90F3FF" stroke="white" stroke-width="0.414369"/>
<path d="M37.7905 142.057L37.7766 142.041L37.7597 142.028L33.6533 138.949L33.3877 139.267L41.3021 146.649L45.03 150.861L45.0588 150.894L45.0983 150.912L50.4443 153.38L50.654 153.025L41.5912 146.351L37.7905 142.057ZM148.609 67.1269L148.288 67.1435L148.435 67.4285L151.074 72.562L151.46 72.4183L150.195 67.2135L150.155 67.0466L149.983 67.0555L148.609 67.1269ZM144.958 56.9549L144.572 57.0952L145.72 62.1337L145.754 62.2817L145.905 62.2941L147.395 62.4163L147.765 62.4467L147.596 62.1155L144.958 56.9549Z" fill="#0C0C0C" stroke="white" stroke-width="0.414369"/>
<path d="M43.4572 110.201L43.7246 110.005L43.4308 109.851L40.5978 108.364L40.4683 108.296L40.3609 108.396L21.6213 125.72L21.8845 126.039L43.4572 110.201Z" fill="#90F3FF" stroke="white" stroke-width="0.414369"/>
<path d="M25.9097 130.23L25.6138 130.519L29.5352 134.932L29.5495 134.948L29.5575 134.954L37.4941 142.346L37.7905 142.057L33.8918 137.652L33.8773 137.636L33.8692 137.63L25.9097 130.23ZM151.442 72.3726L151.051 72.4699L151.128 78.5027L151.132 78.8052L151.413 78.6922L153.918 77.6837L154.129 77.5989L154.025 77.3968L151.442 72.3726ZM145.939 61.8812L145.567 61.8507L145.738 62.1824L148.435 67.4286L148.821 67.2863L147.613 62.1623L147.579 62.0157L147.428 62.0034L145.939 61.8812Z" fill="#0C0C0C" stroke="white" stroke-width="0.414369"/>
<path d="M138.503 63.7883L138.855 63.7755L138.673 63.4742L120.987 34.1974L120.696 33.7154L120.606 34.2712L115.698 64.376L115.657 64.6256L115.91 64.6163L138.503 63.7883Z" fill="#90F3FF" stroke="white" stroke-width="0.414369"/>
<path d="M37.7579 142.027L37.4801 142.332L41.2954 146.642L41.3249 146.675L41.3455 146.685L50.4081 153.359L50.6868 153.056L46.9137 148.754L46.884 148.72L46.8628 148.71L37.7579 142.027ZM151.258 78.3079L151.046 78.3931L151.151 78.5957L153.8 83.6847L154.191 83.5842L154.048 77.4867L154.041 77.1877L153.764 77.2994L151.258 78.3079ZM142.264 51.6828L141.877 51.8216L142.963 56.7694L142.992 56.9014L143.124 56.9281L144.733 57.2524L145.154 57.3372L144.958 56.955L142.264 51.6828ZM21.9028 125.72L21.607 126.01L25.6137 130.519L25.6285 130.536L25.6465 130.549L29.6295 133.455L29.8926 133.136L21.9028 125.72Z" fill="#0C0C0C" stroke="white" stroke-width="0.414369"/>
<path d="M46.9811 111.162L47.4044 110.911L46.9291 110.783L43.3882 109.834L43.2921 109.809L43.2119 109.867L21.6393 125.705L21.8675 126.05L46.9811 111.162Z" fill="#90F3FF" stroke="white" stroke-width="0.414369"/>
<path d="M29.9069 133.15L29.892 133.133L29.8739 133.12L25.8908 130.214L25.6276 130.533L33.5956 137.941L33.8918 137.652L29.9069 133.15ZM148.803 67.2391L148.412 67.3341L148.42 73.2979L148.42 73.5801L148.689 73.4952L151.321 72.6649L151.555 72.591L151.442 72.3726L148.803 67.2391Z" fill="#0C0C0C" stroke="white" stroke-width="0.414369"/>
<path d="M140.151 51.3107L140.549 51.1991L139.528 46.3471L139.522 46.3189L139.509 46.2935L137.411 42.2962L137.032 42.4613L140.151 51.3107Z" fill="#90F3FF" stroke="white" stroke-width="0.414369"/>
<path d="M143.339 56.5487L142.358 52.0801L142.487 52.1201L142.276 51.7067L142.255 51.6149L142.224 51.6051L139.51 46.2956L139.123 46.4326L140.071 50.9401L139.937 50.8986L140.15 51.3119L140.169 51.4039L140.202 51.4142L142.784 56.4369L142.957 56.7729L142.818 62.5318L142.812 62.7794L143.057 62.7415L145.712 62.33L145.652 67.8131L145.551 67.8368L145.65 68.0275L145.648 68.2396L145.748 68.2162L148.329 73.1744L148.443 73.3934L151.118 78.5325L149.875 85.2097L149.772 85.2559L149.842 85.3874L149.783 85.7055L149.967 85.6227L152.605 90.5903L152.889 91.1247L152.992 90.5284L154.169 83.7329L154.269 83.6881L154.2 83.5555L154.255 83.2402L154.078 83.3199L151.542 78.4482L151.465 72.4647L151.462 72.1859L151.196 72.2698L148.834 73.0152L148.826 67.4983L148.925 67.4754L148.826 67.2837L148.826 67.073L148.729 67.0955L146.238 62.2485L146.118 62.0163L144.976 57.0033L144.946 56.8727L144.815 56.8463L143.339 56.5487ZM37.5104 142.366L37.5312 142.375L46.617 149.044L46.6465 149.078L50.3752 153.329L50.4187 153.379L50.4828 153.394L56.9938 154.95L57.0605 154.781L57.1988 154.613L53.4049 150.221L53.3603 150.17L53.3237 150.162L43.0336 144.33L43.0263 144.322L39.1133 139.86L39.082 139.824L39.0602 139.815L29.8918 133.133L25.8327 128.547L25.8173 128.53L25.7984 128.516L21.8827 125.704L21.6209 126.024L29.6033 133.433L33.5814 137.927L33.6125 137.962L37.4801 142.332L37.5104 142.366Z" fill="#0C0C0C" stroke="white" stroke-width="0.414369"/>
<path d="M21.8595 125.689L21.6411 126.04L25.5568 128.853L25.5779 128.868L25.602 128.878L30.7233 130.887L30.8966 130.512L21.8595 125.689Z" fill="#90F3FF" stroke="white" stroke-width="0.414369"/>
<path d="M25.7995 128.517L25.5226 128.822L29.5966 133.425L29.6287 133.461L29.6501 133.47L38.8357 140.164L39.1135 139.86L35.0805 135.262L35.0482 135.225L35.0262 135.216L25.7995 128.517ZM148.811 73.2019L148.539 72.6802L148.424 73.257L147.064 80.057L146.99 80.4293L147.343 80.2905L151.411 78.6929L151.625 78.6087L151.519 78.4044L148.811 73.2019ZM142.994 62.3319L142.708 62.3762L142.842 62.6323L145.674 68.0735L146.065 67.9801L146.129 62.09L146.132 61.8455L145.891 61.883L142.994 62.3319Z" fill="#0C0C0C" stroke="white" stroke-width="0.414369"/>
<path d="M138.289 63.5938L138.701 63.6121L140.552 51.2725L140.559 51.2216L140.542 51.1729L137.423 42.3236L137.021 42.4048L138.289 63.5938Z" fill="#90F3FF" stroke="white" stroke-width="0.414369"/>
<path d="M39.0594 139.816L38.8019 140.134L42.7454 144.63L42.7908 144.682L42.8269 144.689L53.115 150.52L56.8854 154.884L56.9422 154.95L57.029 154.955L64.722 155.445L64.8162 155.047L53.3736 150.185L49.5249 145.73L49.4793 145.677L49.4422 145.669L39.0594 139.816ZM147.192 79.905L146.976 79.9899L147.085 80.195L149.833 85.37L147.164 92.6874L147.002 93.1317L147.439 92.9496L152.868 90.6844L153.078 90.5968L152.971 90.396L150.276 85.321L151.539 78.5382L151.607 78.1708L151.259 78.3074L147.192 79.905ZM140.531 51.1474L140.17 50.4449L140.14 51.2342L139.928 56.7784L139.8 56.7888L139.918 57.0171L139.912 57.1954L140.007 57.1877L142.842 62.6325L143.232 62.5419L143.368 56.9167L143.492 56.9068L143.374 56.6774L143.378 56.5002L143.287 56.5076L140.531 51.1474ZM146.042 67.8824L145.776 67.372L145.655 67.9346L144.209 74.6764L144.132 75.0326L144.478 74.9161L148.693 73.4941L148.923 73.4168L148.811 73.2022L146.042 67.8824ZM30.9548 130.558L30.9216 130.52L30.8748 130.502L25.7534 128.492L25.556 128.853L34.803 135.566L35.0805 135.262L30.9548 130.558Z" fill="#0C0C0C" stroke="white" stroke-width="0.414369"/>
<path d="M138.539 63.7842L138.488 63.3745L115.895 64.2025L115.751 64.2077L115.706 64.344L114.288 68.5977L114.173 68.9408L114.527 68.8659L138.539 63.7842Z" fill="#90F3FF" stroke="white" stroke-width="0.414369"/>
<path d="M35.026 135.218L34.7689 135.535L38.8019 140.133L38.8484 140.186L38.8849 140.193L49.2349 146.028L53.0915 150.492L53.1493 150.559L53.2011 150.562L64.6541 155.429L64.8933 155.104L61.0997 150.616L61.0418 150.547L60.9885 150.544L49.4932 145.693L45.5553 141.135L45.5087 141.081L45.4711 141.073L35.026 135.218ZM144.345 74.5233L144.114 74.6013L144.228 74.8168L147.085 80.1948L147.357 80.7076L147.471 80.1382L148.83 73.3382L148.9 72.9867L148.561 73.1013L144.345 74.5233ZM147.279 92.5669L147.067 92.6555L147.177 92.8574L149.999 98.0275L150.222 98.4364L150.376 97.9968L152.984 90.5615L153.138 90.1227L152.709 90.3017L147.279 92.5669ZM143.209 62.441L142.949 61.9423L142.823 62.4902L141.286 69.1692L141.208 69.5104L141.545 69.415L145.914 68.1771L146.159 68.1078L146.042 67.8821L143.209 62.441Z" fill="#0C0C0C" stroke="white" stroke-width="0.414369"/>
<path d="M21.8126 125.671L21.6643 126.055L30.7014 130.877L30.7401 130.898L30.7839 130.901L44.8361 131.919L44.9019 131.512L21.8126 125.671ZM114.441 68.4604L114.343 68.4811L114.299 68.5705L112.019 73.1312L111.785 73.5981L112.275 73.4183L138.567 63.7759L138.453 63.3787L114.441 68.4604Z" fill="#90F3FF" stroke="white" stroke-width="0.414369"/>
<path d="M147.451 80.0006L147.236 79.5968L147.074 80.0243L144.311 87.3065L144.176 87.3576L144.244 87.4829L144.115 87.8237L144.376 87.7249L147.177 92.8576L147.397 93.2598L147.554 92.8293L150.221 85.5144L150.353 85.4648L150.286 85.3385L150.409 85.0006L150.157 85.0959L147.451 80.0006ZM30.9 130.514L30.6434 130.831L34.769 135.535L34.8166 135.589L34.8536 135.596L45.2656 141.433L49.2114 146.001L49.2703 146.069L49.3225 146.071L60.8154 150.921L64.577 155.372L64.6458 155.453L64.7521 155.444L73.3337 154.74L73.3774 154.336L61.0605 150.569L57.2178 146.023L57.1588 145.953L57.105 145.951L45.5236 141.098L41.4933 136.433L41.4456 136.377L41.4075 136.371L30.9 130.514ZM141.432 69.0165L141.185 69.0864L141.305 69.313L144.228 74.8169L144.495 75.3186L144.614 74.7632L146.06 68.0214L146.133 67.6848L145.801 67.7786L141.432 69.0165Z" fill="#0C0C0C" stroke="white" stroke-width="0.414369"/>
<path d="M140.142 51.2112L138.309 63.4292L112.133 73.0293L112.068 73.053L112.031 73.1103L108.98 77.7672L108.568 78.3966L109.244 78.067L138.587 63.7677L138.513 63.5947L138.697 63.6311L140.329 57.0196L140.334 56.9991L140.334 56.9779L140.554 51.2498L140.142 51.2112ZM46.9255 110.782L46.843 110.762L46.7698 110.805L21.6562 125.694L21.7825 126.078L82.3093 120.013L82.3387 119.606L46.9255 110.782Z" fill="#90F3FF" stroke="white" stroke-width="0.414369"/>
<path d="M147.541 92.6589L147.357 92.3217L147.176 92.6607L143.165 100.189L143.008 100.244L143.074 100.36L142.877 100.73L143.215 100.61L146.052 105.64L146.241 105.973L146.417 105.633L150.327 98.0963L150.479 98.0425L150.415 97.9258L150.606 97.5581L150.278 97.6741L147.541 92.6589ZM140.311 56.8743L140.058 56.3874L139.926 56.9203L138.325 63.4081L138.186 63.4402L138.276 63.6086L138.214 63.8591L138.388 63.819L141.305 69.3129L141.566 69.8031L141.69 69.2621L143.198 62.7094L143.333 62.6784L143.244 62.5087L143.302 62.2603L143.135 62.2987L140.311 56.8743ZM144.594 74.6224L144.384 74.2257L144.219 74.6435L141.358 81.8854L141.216 81.9338L141.287 82.0649L141.158 82.3908L141.417 82.303L144.29 87.5663L144.505 87.9617L144.665 87.5406L147.427 80.2624L147.565 80.2155L147.495 80.0834L147.617 79.7601L147.368 79.8448L144.594 74.6224ZM69.7065 149.814L69.6367 149.729L69.5676 149.735L57.1783 145.976L53.2443 141.322L53.1842 141.251L53.1298 141.249L41.4613 136.396L37.3355 131.62L37.2866 131.563L37.2127 131.551L30.833 130.49L30.6982 130.875L41.2037 136.731L45.2417 141.406L45.3018 141.475L45.3545 141.476L56.9335 146.328L60.7833 150.883L60.8531 150.966L60.9201 150.96L73.2561 154.732L73.9126 154.932L73.4768 154.402L69.7065 149.814Z" fill="#0C0C0C" stroke="white" stroke-width="0.414369"/>
<path d="M109.062 77.6945L109.021 77.7148L108.992 77.7509L105.236 82.4205L105.5 82.7302L138.599 63.7612L138.405 63.3952L109.062 77.6945ZM51.1863 111.125L51.1677 111.12L51.1485 111.119L46.892 110.777L46.8253 111.184L82.2342 120.007L82.2385 120.008L82.343 119.607L82.3387 119.606L51.1863 111.125Z" fill="#90F3FF" stroke="white" stroke-width="0.414369"/>
<path d="M69.5889 149.742L69.0126 149.622L69.3864 150.077L73.1567 154.665L73.2364 154.762L73.3594 154.736L82.4152 152.832L82.415 152.426L69.5889 149.742ZM144.653 87.3678L144.472 87.0351L144.29 87.3676L140.136 94.9534L139.885 95.4119L140.382 95.2499L147.423 92.9551L147.66 92.8778L147.541 92.6589L144.653 87.3678Z" fill="#0C0C0C" stroke="white" stroke-width="0.414369"/>
<path d="M105.294 82.3706L105.268 82.3856L105.247 82.4074L100.865 87.0021L101.125 87.3205L138.606 63.7569L138.393 63.4017L105.294 82.3706Z" fill="#90F3FF" stroke="white" stroke-width="0.414369"/>
<path d="M141.671 69.1186L141.464 68.7293L141.297 69.137L138.297 76.4259L138.131 76.8289L138.548 76.7032L144.471 74.9181L144.712 74.8453L144.594 74.6225L141.671 69.1186ZM140.253 94.8561L140.013 94.9345L140.137 95.1549L143.129 100.459L143.315 100.788L143.493 100.455L147.542 92.8557L147.784 92.402L147.295 92.5613L140.253 94.8561ZM65.8464 145.116L65.7756 145.03L65.7061 145.038L53.1456 141.257L52.4768 141.056L52.9277 141.589L56.9012 146.291L56.972 146.374L57.0394 146.367L69.4862 150.144L70.1405 150.342L69.7064 149.814L65.8464 145.116Z" fill="#0C0C0C" stroke="white" stroke-width="0.414369"/>
<path d="M30.814 130.488L30.7651 130.899L37.1447 131.96L37.1622 131.962L37.1799 131.962L44.8524 131.92L44.8662 131.506L30.814 130.488Z" fill="#90F3FF" stroke="white" stroke-width="0.414369"/>
<path d="M37.2577 131.564L37.0219 131.891L41.1796 136.703L41.2408 136.774L41.3344 136.775L49.0157 136.849L49.0968 136.451L37.2577 131.564Z" fill="#0C0C0C" stroke="white" stroke-width="0.414369"/>
<path d="M100.904 86.9696L100.889 86.9791L100.876 86.9911L95.9595 91.4208L96.2123 91.7477L138.606 63.7568L138.61 63.7543L138.386 63.406L138.382 63.4085L100.904 86.9696ZM56.169 110.793L56.13 110.78L56.0889 110.783L51.118 111.119L51.0775 111.525L82.2342 120.007L82.3548 119.611L56.169 110.793Z" fill="#90F3FF" stroke="white" stroke-width="0.414369"/>
<path d="M49.1759 136.509L49.1146 136.436L49.0197 136.435L41.3384 136.361L41.2568 136.759L53.0064 141.647L53.2442 141.322L49.1759 136.509ZM138.429 76.3064L138.184 76.38L138.307 76.604L141.333 82.1501L141.545 82.5386L141.708 82.127L144.604 74.7958L144.761 74.3979L144.351 74.5213L138.429 76.3064ZM143.49 100.255L143.328 99.9683L143.14 100.239L137.821 107.873L137.482 108.359L138.05 108.19L146.292 105.736L146.541 105.662L146.413 105.436L143.49 100.255Z" fill="#0C0C0C" stroke="white" stroke-width="0.414369"/>
<path d="M95.9841 91.4019L95.9772 91.4064L95.9707 91.4115L90.6232 95.5863L90.8665 95.9214L138.61 63.7543L138.612 63.7532L138.382 63.4085L138.38 63.4096L95.9841 91.4019Z" fill="#90F3FF" stroke="white" stroke-width="0.414369"/>
<path d="M137.932 107.793L137.679 107.868L137.812 108.096L140.843 113.267L141.009 113.549L141.193 113.279L146.404 105.655L146.733 105.173L146.174 105.339L137.932 107.793Z" fill="#0C0C0C" stroke="white" stroke-width="0.414369"/>
<path d="M90.6351 95.5778L90.6348 95.578L84.9681 99.4101L84.9679 99.4103L85.1997 99.7537L85.2 99.7535L85.2002 99.7534L138.61 63.7543L138.612 63.7533L138.612 63.7532L138.496 63.5814L138.38 63.4096L138.38 63.4096L90.6351 95.5778Z" fill="#90F3FF" stroke="white" stroke-width="0.414369"/>
<path d="M78.8099 147.813L78.7295 147.711L78.6465 147.73L65.7287 145.045L65.1534 144.926L65.5264 145.379L69.3864 150.077L69.467 150.175L69.5476 150.157L82.3301 152.832L82.8917 152.949L82.5347 152.5L78.8099 147.813ZM141.697 81.9516L141.518 81.6236L141.335 81.9492L137.072 89.5191L136.821 89.9659L137.312 89.8193L144.531 87.6657L144.776 87.5926L144.653 87.3679L141.697 81.9516ZM138.679 63.4843L138.476 63.1024L138.306 63.4998L135.198 70.7425L135.03 71.1328L135.441 71.0245L141.541 69.4161L141.794 69.3495L141.671 69.1186L138.679 63.4843Z" fill="#0C0C0C" stroke="white" stroke-width="0.414369"/>
<path d="M61.6844 109.759L61.6232 109.73L61.5566 109.742L56.0643 110.786L55.2877 110.934L56.0369 111.186L82.2227 120.003L82.3779 119.62L61.6844 109.759Z" fill="#90F3FF" stroke="white" stroke-width="0.414369"/>
<path d="M137.193 89.4222L136.945 89.4964L137.072 89.7225L140.137 95.1547L140.32 95.4794L140.499 95.1524L144.653 87.5666L144.895 87.1244L144.412 87.2685L137.193 89.4222ZM78.6733 147.736L78.1697 147.673L78.4855 148.07L82.2103 152.758L82.3 152.871L82.437 152.826L91.7665 149.767L91.7276 149.364L78.6733 147.736ZM61.8937 140.306L61.8218 140.218L61.7519 140.227L49.077 136.444L48.4106 136.245L48.8595 136.776L52.9278 141.589L52.9997 141.674L53.0675 141.666L65.6268 145.446L66.2789 145.642L65.8465 145.116L61.8937 140.306Z" fill="#0C0C0C" stroke="white" stroke-width="0.414369"/>
<path d="M21.7412 125.666L21.7111 126.073L44.8004 131.914L44.8577 131.928L44.914 131.91L82.3514 120.004L82.268 119.601L21.7412 125.666Z" fill="#90F3FF" stroke="white" stroke-width="0.414369"/>
<path d="M45.0094 131.579L44.9468 131.505L44.85 131.506L37.1775 131.548L37.0996 131.947L48.9386 136.834L49.1759 136.509L45.0094 131.579ZM135.335 70.6238L135.08 70.6912L135.206 70.9234L138.307 76.604L138.515 76.9853L138.68 76.5836L141.68 69.2946L141.838 68.9091L141.435 69.0154L135.335 70.6238ZM140.498 94.9512L140.337 94.667L140.148 94.933L134.76 102.515L134.571 102.568L134.64 102.685L134.379 103.051L134.788 102.938L137.737 107.968L131.403 115.303L131.192 115.355L131.261 115.468L130.936 115.844L131.419 115.726L134.484 120.739L134.634 120.983L134.819 120.765L141.136 113.348L141.341 113.297L141.275 113.185L141.595 112.809L141.123 112.924L138.237 108.001L143.437 100.537L143.62 100.486L143.554 100.369L143.809 100.004L143.411 100.114L140.498 94.9512ZM74.9948 143.012L74.9135 142.91L74.7861 142.939L65.6398 145.046L65.6442 145.451L78.6054 148.144L79.1659 148.261L78.8097 147.813L74.9948 143.012Z" fill="#0C0C0C" stroke="white" stroke-width="0.414369"/>
<path d="M67.4793 108.069L67.3952 108.003L67.2933 108.034L61.536 109.747L61.0194 109.901L61.506 110.133L82.1995 119.994L82.4156 119.643L67.4793 108.069Z" fill="#90F3FF" stroke="white" stroke-width="0.414369"/>
<path d="M101.097 145.227L88.149 144.584L88.1173 144.543L88.0215 144.575L74.8666 142.936L61.8472 140.249L57.8445 135.378L57.7716 135.289L57.6576 135.304L48.9909 136.437L48.9585 136.841L61.6137 140.618L65.5264 145.379L65.6079 145.479L65.733 145.45L74.7519 143.372L78.4855 148.07L78.5759 148.184L78.6689 148.153L91.5901 149.765L91.6364 149.825L91.7331 149.783L92.1668 149.837L92.0265 149.653L101.17 145.624L101.097 145.227ZM138.67 76.4054L138.494 76.0821L138.309 76.4008L133.976 83.878L133.801 83.9254L133.874 84.0543L133.681 84.3873L134.012 84.2978L137.072 89.7225L137.253 90.0427L137.433 89.7224L141.653 82.2281L141.823 82.1821L141.752 82.0523L141.939 81.7215L141.619 81.8081L138.67 76.4054Z" fill="#0C0C0C" stroke="white" stroke-width="0.414369"/>
<path d="M73.4384 105.782L73.3461 105.639L73.1884 105.702L67.2763 108.04L66.9381 108.173L67.2255 108.396L82.1618 119.97L82.4625 119.694L73.4384 105.782Z" fill="#90F3FF" stroke="white" stroke-width="0.414369"/>
<path d="M44.9101 131.514L44.2461 131.317L44.6931 131.846L48.8596 136.776L48.9326 136.862L49.0447 136.848L57.7114 135.715L57.7433 135.311L44.9101 131.514ZM123.772 122.637L123.39 123.004L123.94 122.899L127.123 127.876L127.26 128.09L127.442 127.913L134.761 120.822L134.994 120.777L134.925 120.664L135.304 120.296L134.763 120.4L131.694 115.38L131.559 115.161L131.374 115.339L123.939 122.477L123.699 122.523L123.772 122.637ZM137.433 89.5187L137.275 89.2375L137.085 89.4989L131.582 97.087L131.388 97.1369L131.458 97.257L131.2 97.6131L131.606 97.5087L134.708 102.8L134.87 103.076L135.055 102.815L140.443 95.2345L140.631 95.1861L140.563 95.0655L140.815 94.7109L140.42 94.8125L137.433 89.5187Z" fill="#0C0C0C" stroke="white" stroke-width="0.414369"/>
<path d="M79.4188 102.952L79.3696 102.683L79.124 102.803L73.1736 105.708L72.9634 105.811L73.0907 106.007L82.1148 119.92L82.4925 119.77L79.4188 102.952ZM130.711 78.2581L131.073 78.4591L135.566 70.9301L135.573 70.9183L135.579 70.9057L138.686 63.663L138.312 63.4865L130.711 78.2581Z" fill="#90F3FF" stroke="white" stroke-width="0.414369"/>
<path d="M97.4648 140.353L97.1071 140.359L97.1918 140.475L87.9584 144.597L88.0326 144.993L100.978 145.636L101.028 145.704L101.136 145.644L101.511 145.663L101.393 145.502L110.399 140.51L110.295 140.122L97.6143 140.35L97.5789 140.302L97.4648 140.353ZM128.039 110.199L127.718 110.566L128.197 110.456L131.34 115.597L131.488 115.839L131.674 115.624L138.104 108.178L138.312 108.13L138.245 108.015L138.562 107.648L138.093 107.756L135.065 102.591L134.92 102.343L134.73 102.559L128.184 110.034L127.969 110.083L128.039 110.199ZM71.0868 138.094L71.0046 137.99L70.876 138.021L61.6852 140.236L61.6918 140.64L74.791 143.344L75.3505 143.459L74.9951 143.012L71.0868 138.094Z" fill="#0C0C0C" stroke="white" stroke-width="0.414369"/>
<path d="M85.289 99.6103L85.3472 99.1894L84.9798 99.4027L79.111 102.81L78.985 102.883L79.0112 103.026L82.0849 119.844L82.4939 119.835L85.289 99.6103Z" fill="#90F3FF" stroke="white" stroke-width="0.414369"/>
<path d="M84.4585 139.759L84.3678 139.641L84.2266 139.689L74.7654 142.945L74.8072 143.346L88.0172 144.992L88.5076 145.053L88.2073 144.66L84.4585 139.759ZM115.709 129.148L115.38 129.193L115.565 129.469L118.74 134.209L106.803 135.163L106.442 135.192L106.65 135.488L110.129 140.448L110.246 140.614L110.415 140.501L119.053 134.675L119.063 134.691L119.232 134.554L119.879 134.118L119.76 134.128L127.428 127.926L128.006 127.458L127.27 127.559L115.709 129.148ZM57.7261 135.307L57.1531 135.189L57.5244 135.641L61.5735 140.569L61.656 140.669L61.7822 140.639L70.973 138.424L70.9661 138.019L57.7261 135.307ZM135.57 70.7247L135.396 70.4062L135.21 70.7178L130.718 78.2467L130.464 78.671L130.944 78.5542L138.538 76.7058L138.8 76.642L138.67 76.4053L135.57 70.7247Z" fill="#0C0C0C" stroke="white" stroke-width="0.414369"/>
<path d="M84.9681 99.4101L84.8914 99.4618L84.8787 99.5535L82.0836 119.779L81.9991 120.39L82.4353 119.953L138.642 63.7279L138.38 63.4096L84.9681 99.4101Z" fill="#90F3FF" stroke="white" stroke-width="0.414369"/>
<path d="M131.62 115.26L128.552 110.243L134.997 102.883L135.21 102.838L135.141 102.719L135.454 102.361L134.989 102.461L131.953 97.2813L137.375 89.8046L137.568 89.7588L137.498 89.6347L137.748 89.2903L137.357 89.3832L134.352 84.0571L138.668 76.6085L138.911 76.1885L138.44 76.3034L130.846 78.1517L130.581 78.2164L130.715 78.4548L133.866 84.0404L128.324 91.5243L128.125 91.5715L128.198 91.6951L127.942 92.0408L128.344 91.9454L131.451 97.2442L124.884 104.634L124.665 104.681L124.737 104.799L124.419 105.158L124.894 105.055L128.031 110.186L120.601 117.255L120.358 117.299L120.432 117.415L120.054 117.775L120.599 117.676L123.688 122.506L112.255 123.989L111.923 124.032L112.109 124.31L115.367 129.174L103.239 130.08L102.875 130.107L103.085 130.406L106.425 135.168L93.95 135.354L93.9139 135.305L93.8 135.357L93.4417 135.362L93.528 135.48L84.3586 139.629L80.6168 134.737L80.5254 134.617L80.3834 134.668L70.9949 137.978L67.0816 133.054L66.9984 132.949L66.9145 132.97L53.6489 130.272L53.6215 130.239L53.5416 130.25L53.005 130.141L53.142 130.308L44.8217 131.508L44.7925 131.912L57.5648 135.69L57.6078 135.743L57.6801 135.725L58.2734 135.9L58.2159 135.83L70.8092 138.41L74.6706 143.27L74.7617 143.384L74.9002 143.337L84.2202 140.13L87.8782 144.912L87.9777 145.042L88.1273 144.975L97.4425 140.816L97.4518 140.829L97.5596 140.769L97.9357 140.788L97.9143 140.759L110.303 140.536L110.692 140.529L110.468 140.21L107.197 135.547L119.126 134.594L119.478 134.566L119.281 134.272L116.094 129.514L127.326 127.97L127.647 127.926L127.472 127.653L124.313 122.714L124.742 122.369L124.636 122.383L131.615 115.681L131.852 115.639L131.781 115.523L132.156 115.162L131.62 115.26Z" fill="#0C0C0C" stroke="white" stroke-width="0.414369"/>
<path d="M44.8095 131.51L44.8808 131.918L53.565 130.666L53.5768 130.664L53.5882 130.661L62.8665 128.216L62.7719 127.813L44.8095 131.51ZM117.967 93.4955L118.298 93.7446L131.054 78.4858L131.069 78.4682L131.08 78.4478L138.68 63.6762L138.324 63.4651L117.967 93.4955Z" fill="#90F3FF" stroke="white" stroke-width="0.414369"/>
<path d="M128.399 109.993L125.251 104.845L131.814 97.4589L132.031 97.4155L131.96 97.2945L132.271 96.9451L131.809 97.0373L128.693 91.7218L134.233 84.2418L134.431 84.1988L134.359 84.0711L134.607 83.7368L134.218 83.821L131.076 78.2513L130.921 77.9763L130.73 78.2281L124.985 85.8216L124.78 85.8659L124.855 85.9932L124.601 86.3287L125.001 86.2421L128.19 91.6824L121.502 99.0977L121.278 99.1424L121.352 99.2635L121.037 99.6132L121.508 99.5189L124.729 104.787L117.179 111.902L116.932 111.944L117.008 112.063L116.634 112.415L117.175 112.323L120.347 117.282L108.713 118.701L108.379 118.741L108.566 119.022L111.91 124.013L99.5847 124.87L99.2189 124.895L99.4295 125.195L102.859 130.084L90.1941 130.234L90.1572 130.184L90.0436 130.236L89.6846 130.24L89.7727 130.36L80.5163 134.606L76.6786 129.589L76.5864 129.468L76.4436 129.52L66.9889 132.937L62.9759 127.887L62.8918 127.781L62.761 127.816L53.4827 130.26L53.4942 130.664L66.8041 133.371L70.7623 138.352L70.8541 138.467L70.9934 138.418L80.3791 135.108L84.1294 140.011L84.2294 140.142L84.3794 140.074L93.7785 135.821L93.7876 135.834L93.8952 135.773L94.2716 135.793L94.2507 135.764L106.823 135.577L107.214 135.571L106.989 135.25L103.633 130.466L115.753 129.56L116.107 129.534L115.909 129.238L112.639 124.357L124.065 122.875L124.389 122.833L124.213 122.558L120.974 117.493L121.396 117.154L121.295 117.166L128.393 110.414L128.632 110.374L128.56 110.256L128.931 109.903L128.399 109.993Z" fill="#0C0C0C" stroke="white" stroke-width="0.414369"/>
<path d="M138.349 63.4349L82.1778 119.625L44.7884 131.515L44.893 131.916L62.8555 128.219L62.8754 128.215L62.8942 128.207L82.3692 119.998L82.3223 119.871L82.4109 119.974L118.261 93.779L118.29 93.7578L118.31 93.728L138.667 63.6976L138.349 63.4349Z" fill="#90F3FF" stroke="white" stroke-width="0.414369"/>
<path d="M117 112.05L108.616 118.739L99.4899 124.9L90.0407 130.232L76.5322 129.508L62.8391 127.81L62.3361 127.748L62.6514 128.145L66.757 133.311L66.8497 133.428L66.9897 133.377L76.4416 129.961L80.2876 134.989L80.3881 135.12L80.5385 135.051L90.1364 130.649L103.257 130.494L103.649 130.489L103.424 130.168L99.9792 125.258L112.295 124.401L112.652 124.377L112.453 124.079L109.098 119.071L120.724 117.654L121.051 117.614L120.873 117.336L117.542 112.129L125.089 105.017L125.332 104.978L125.258 104.857L125.625 104.512L125.098 104.596L121.786 99.1793L121.654 98.9627L121.468 99.1359L113.67 106.413L113.42 106.453L113.497 106.574L113.128 106.919L113.663 106.834L117 112.05Z" fill="#0C0C0C" stroke="white" stroke-width="0.414369"/>
<path d="M117.98 93.4789L118.291 93.7517L125.256 86.1477L125.263 86.1405L125.269 86.1328L131.061 78.478L130.736 78.2201L117.98 93.4789Z" fill="#90F3FF" stroke="white" stroke-width="0.414369"/>
<path d="M95.5505 119.666L86.1894 124.982L72.5823 124.233L72.5473 124.188L72.4441 124.226L72.0377 124.203L72.1408 124.338L62.7417 127.822L62.7882 128.222L76.4023 129.909L76.4506 129.972L76.5475 129.927L76.9786 129.981L76.9515 129.945L89.981 130.644L90.0317 130.713L90.1393 130.653L90.5159 130.673L90.3952 130.508L99.5374 125.349L99.5464 125.362L99.6633 125.283L99.9951 125.28L99.8898 125.13L108.682 119.194L108.692 119.209L108.817 119.109L109.111 119.09L109.026 118.963L109.488 118.651L109.383 118.657L117.358 112.295L117.629 112.264L117.55 112.141L117.968 111.808L117.38 111.875L113.94 106.496L113.816 106.303L113.636 106.445L105.023 113.284L104.744 113.316L104.819 113.427L95.7817 119.53L95.4695 119.55L95.5505 119.666ZM117.881 93.5869L117.568 93.9279L118.036 93.8415L121.433 99.3955L121.577 99.6322L121.763 99.4261L128.552 91.8995L128.774 91.8586L128.701 91.7346L129.008 91.3939L128.551 91.4784L125.282 85.903L125.14 85.6609L124.951 85.8678L118.033 93.4207L117.805 93.4628L117.881 93.5869Z" fill="#0C0C0C" stroke="white" stroke-width="0.414369"/>
<path d="M62.7332 127.825L62.8856 128.21L72.5476 124.629L72.556 124.626L72.564 124.622L82.377 119.994L82.2082 119.616L62.7332 127.825Z" fill="#90F3FF" stroke="white" stroke-width="0.414369"/>
<path d="M109.889 100.933L101.298 107.72L101.016 107.75L101.1 107.876L100.689 108.202L101.277 108.139L104.732 113.298L92.1096 114.039L92.0675 113.979L91.9457 114.049L91.6234 114.068L91.7062 114.186L82.2331 119.6L81.8814 119.602L81.9729 119.727L72.3873 124.248L72.4643 124.642L86.1296 125.394L86.1807 125.463L86.2881 125.402L86.6651 125.423L86.5435 125.257L95.7895 120.006L95.7983 120.019L95.9149 119.94L96.2479 119.938L96.1515 119.801L96.643 119.522L96.5334 119.522L105.049 113.771L105.058 113.785L105.228 113.65L105.848 113.232L105.748 113.238L113.714 106.913L113.724 106.929L113.856 106.806L114.12 106.778L114.04 106.654L114.452 106.327L114.359 106.336L121.704 99.4829L121.95 99.4465L121.874 99.3235L122.237 98.9852L121.715 99.0624L118.315 93.5037L118.184 93.2882L117.998 93.4596L110.071 100.783L109.818 100.821L109.889 100.933Z" fill="#0C0C0C" stroke="white" stroke-width="0.414369"/>
<path d="M82.1666 119.64L82.3983 119.983L101.489 108.096L101.502 108.088L101.511 108.08L110.293 101.141L110.299 101.136L110.305 101.131L118.279 93.7639L118.186 93.6583L118.017 93.4445L82.1666 119.64Z" fill="#90F3FF" stroke="white" stroke-width="0.414369"/>
<path d="M101.551 107.805L101.435 107.632L101.263 107.748L91.8903 114.081L91.2645 114.504L92.0184 114.459L105.118 113.69L105.479 113.669L105.278 113.368L101.551 107.805Z" fill="#0C0C0C" stroke="white" stroke-width="0.414369"/>
<path d="M82.1792 119.631L82.3915 119.987L92.1092 114.433L92.1159 114.429L92.1224 114.424L101.495 108.092L101.27 107.744L82.1792 119.631Z" fill="#90F3FF" stroke="white" stroke-width="0.414369"/>
</svg>
