<svg width="121" height="25" viewBox="0 0 121 25" fill="none" xmlns="http://www.w3.org/2000/svg">
<g clip-path="url(#clip0_18_775)">
<path d="M16.771 6.89583C16.2517 6.32269 15.615 5.8681 14.9043 5.56296C14.1963 5.26035 13.4341 5.10536 12.6641 5.10747C11.7545 5.0706 10.8517 5.27954 10.0507 5.7123C9.37301 6.11286 8.83077 6.70711 8.49378 7.41853H8.00842V0H0V3.22577H4.63331V18.817H8.01962V16.883H8.50498C8.66897 17.1915 8.86146 17.484 9.07995 17.7567C9.31782 18.0479 9.60004 18.2999 9.91626 18.5034C10.2776 18.7313 10.6717 18.9025 11.0849 19.0111C11.6026 19.1469 12.1365 19.211 12.6716 19.2015C13.4589 19.208 14.2396 19.0569 14.9677 18.7573C15.6716 18.4606 16.2986 18.0073 16.8009 17.4319C17.3488 16.8101 17.7721 16.0889 18.0479 15.3075C18.3656 14.3726 18.5197 13.39 18.5034 12.4028V11.91C18.5196 10.9301 18.3602 9.95518 18.033 9.03141C17.7515 8.24597 17.3233 7.52123 16.771 6.89583ZM15.1171 12.3207C15.143 12.8095 15.0693 13.2985 14.9005 13.758C14.7317 14.2176 14.4713 14.638 14.1351 14.9939C13.7967 15.3215 13.3951 15.5769 12.9547 15.7444C12.5144 15.912 12.0446 15.9881 11.5739 15.9683C11.0998 15.9876 10.6269 15.908 10.1853 15.7344C9.74371 15.5609 9.34309 15.2972 9.00901 14.9603C8.67689 14.6082 8.41832 14.1933 8.24844 13.7401C8.07855 13.2869 8.00076 12.8043 8.01962 12.3207V11.9958C7.99654 11.509 8.07156 11.0224 8.24025 10.5651C8.40893 10.1078 8.66782 9.68909 9.00154 9.33383C9.33713 8.99728 9.73925 8.73446 10.1822 8.56217C10.6251 8.38988 11.0992 8.31191 11.5739 8.33324C12.0465 8.31685 12.5174 8.39714 12.9578 8.56919C13.3982 8.74125 13.7989 9.00145 14.1351 9.33383C14.4713 9.68968 14.7317 10.1101 14.9005 10.5696C15.0693 11.0292 15.143 11.5182 15.1171 12.007V12.3207Z" fill="white"/>
<path d="M26.9449 0H19.041V3.22577H23.5586V15.5912H18.8805V18.817H31.2982V15.5912H26.9449V0Z" fill="white"/>
<path d="M41.7558 12.4737C41.8061 13.4177 41.5565 14.3534 41.0427 15.1469C40.5673 15.8015 39.8206 16.1288 38.8026 16.1288C38.4287 16.1564 38.0534 16.0996 37.7044 15.9626C37.3555 15.8256 37.0417 15.6119 36.7865 15.3373C36.3045 14.7022 36.0661 13.9154 36.1144 13.1196V5.4845H32.7244V13.814C32.7107 14.6224 32.837 15.427 33.0978 16.1923C33.3118 16.817 33.6553 17.3895 34.1058 17.8724C34.522 18.3122 35.0326 18.6518 35.5992 18.8655C36.1965 19.0866 36.8291 19.1967 37.466 19.1903C39.4174 19.1903 40.6893 18.4199 41.2817 16.8792H41.767V18.8169H45.1533V5.4845H41.767L41.7558 12.4737Z" fill="white"/>
<path d="M55.5175 12.4737C55.5689 13.4172 55.3206 14.3529 54.8081 15.1469C54.3303 15.8002 53.5836 16.1288 52.568 16.1288C52.1941 16.1564 51.8188 16.0996 51.4699 15.9626C51.1209 15.8256 50.8072 15.6119 50.5519 15.3373C50.0699 14.7022 49.8315 13.9154 49.8799 13.1196V5.4845H46.4936V13.814C46.4816 14.6222 46.6079 15.4266 46.8669 16.1923C47.081 16.817 47.4245 17.3895 47.875 17.8724C48.2915 18.3118 48.8021 18.6513 49.3684 18.8655C49.9654 19.0874 50.5982 19.1975 51.2352 19.1903C53.1915 19.1903 54.4609 18.4174 55.0546 16.8792H55.5362V18.8169H58.9262V5.4845H55.5175V12.4737Z" fill="white"/>
<path d="M63.2199 10.577C63.3882 10.1293 63.6418 9.71852 63.9666 9.36735C64.2845 9.03937 64.6655 8.77903 65.0866 8.60198C65.5208 8.42169 65.9867 8.33029 66.4568 8.33316C66.8971 8.30658 67.3382 8.36891 67.7538 8.51644C68.1695 8.66397 68.5512 8.89368 68.8762 9.19187C69.4375 9.73944 69.7979 10.4602 69.8991 11.2378L73.2295 10.3754C72.9748 8.88463 72.1996 7.53254 71.0416 6.55974C69.8842 5.594 68.3734 5.10988 66.5091 5.10739C65.5785 5.10039 64.6546 5.26493 63.7836 5.59275C62.9448 5.89932 62.1794 6.37786 61.5364 6.99767C60.8935 7.61749 60.3872 8.36488 60.0501 9.19187C59.6801 10.1149 59.4974 11.1023 59.5125 12.0966V12.4176C59.5058 13.41 59.7014 14.3932 60.0874 15.3074C60.4262 16.115 60.9356 16.8397 61.5808 17.4318C62.2245 18.0141 62.9787 18.461 63.7986 18.746C64.6834 19.0578 65.6158 19.2132 66.5539 19.2052C68.4555 19.2052 69.9751 18.7211 71.1125 17.7529C72.258 16.7736 73.0232 15.4231 73.2743 13.9372L69.9439 13.1009C69.8247 13.8967 69.4514 14.6327 68.8799 15.1991C68.3348 15.7181 67.5396 15.9794 66.5016 15.9794C66.0353 15.9813 65.5721 15.9043 65.1314 15.7517C64.7144 15.6029 64.333 15.369 64.0114 15.0647C63.6861 14.7397 63.4318 14.3506 63.2647 13.9223C63.07 13.4215 62.9748 12.8876 62.9846 12.3504V12.1899C62.9605 11.6422 63.0403 11.095 63.2199 10.577Z" fill="white"/>
<path d="M85.1693 6.39927C84.7638 5.97127 84.2676 5.63957 83.717 5.42855C83.1333 5.21024 82.5144 5.10139 81.8913 5.10747C81.0278 5.07883 80.1753 5.30755 79.4421 5.76457C78.7702 6.22497 78.2504 6.87476 77.9487 7.63134H77.4671V0H74.077V18.817H77.4671V11.8801C77.4211 10.9236 77.6828 9.97762 78.2138 9.18075C78.476 8.84201 78.8174 8.57291 79.208 8.39713C79.5986 8.22135 80.0265 8.14428 80.4539 8.1727C80.8236 8.14945 81.1938 8.21103 81.5361 8.35274C81.8784 8.49445 82.1838 8.71254 82.4289 8.99034C82.9154 9.63242 83.1588 10.426 83.1159 11.2305V18.817H86.5022V10.4315C86.5192 9.62345 86.4006 8.81828 86.1513 8.04949C85.9483 7.43437 85.6131 6.87112 85.1693 6.39927Z" fill="white"/>
<path d="M95.9218 5.4845H88.3428V8.71027H92.5355V15.5912H88.0179V18.8169H99.7935V15.5912H95.9218V5.4845Z" fill="white"/>
<path d="M112.977 6.89582C112.458 6.32153 111.821 5.86675 111.11 5.56295C110.402 5.26044 109.64 5.10546 108.87 5.10746C107.96 5.06985 107.057 5.27883 106.256 5.71229C105.578 6.11264 105.034 6.70684 104.696 7.41852H104.214V5.48455H100.843V24.1933H104.229V16.883H104.711C104.876 17.1907 105.068 17.483 105.286 17.7567C105.523 18.047 105.804 18.2988 106.118 18.5034C106.481 18.7306 106.876 18.9018 107.29 19.0111C107.807 19.1467 108.34 19.2108 108.873 19.2015C109.662 19.208 110.444 19.0569 111.173 18.7573C111.879 18.4638 112.509 18.013 113.014 17.4393C113.557 16.8142 113.976 16.0905 114.246 15.3075C114.567 14.3733 114.722 13.3904 114.705 12.4028V11.91C114.725 10.9307 114.569 9.95587 114.246 9.0314C113.964 8.24475 113.533 7.51972 112.977 6.89582ZM111.326 12.3206C111.352 12.8095 111.279 13.2985 111.11 13.758C110.941 14.2176 110.681 14.638 110.344 14.9939C110.005 15.3234 109.603 15.5805 109.161 15.7493C108.72 15.9181 108.248 15.9952 107.776 15.9758C107.302 15.9951 106.829 15.9154 106.387 15.7419C105.946 15.5683 105.545 15.3047 105.211 14.9677C104.878 14.6146 104.62 14.1984 104.452 13.7437C104.283 13.289 104.207 12.8051 104.229 12.3206V11.9958C104.205 11.5089 104.28 11.0221 104.448 10.5647C104.617 10.1072 104.876 9.68859 105.211 9.33382C105.545 8.99688 105.946 8.73323 106.387 8.55967C106.829 8.38611 107.302 8.30645 107.776 8.32577C108.25 8.30976 108.723 8.39093 109.164 8.56429C109.606 8.73765 110.008 8.99952 110.344 9.33382C110.681 9.68967 110.941 10.1101 111.11 10.5696C111.279 11.0292 111.352 11.5182 111.326 12.007V12.3206Z" fill="white"/>
<path d="M120.798 15.6322C120.671 15.3284 120.483 15.0539 120.246 14.8257C120.008 14.5987 119.731 14.4166 119.428 14.2881C119.115 14.155 118.779 14.0864 118.439 14.0864C118.099 14.0864 117.762 14.155 117.449 14.2881C117.152 14.4195 116.879 14.6014 116.643 14.8257C116.415 15.0568 116.234 15.3309 116.113 15.6322C115.979 15.9515 115.911 16.2941 115.911 16.6402C115.911 16.9863 115.979 17.329 116.113 17.6483C116.24 17.9511 116.427 18.2254 116.662 18.4547C116.897 18.6791 117.17 18.861 117.468 18.9924C117.781 19.1254 118.117 19.194 118.457 19.194C118.797 19.194 119.134 19.1254 119.447 18.9924C119.75 18.8639 120.027 18.6817 120.264 18.4547C120.502 18.2266 120.69 17.9521 120.817 17.6483C120.951 17.329 121.019 16.9863 121.019 16.6402C121.019 16.2941 120.951 15.9515 120.817 15.6322H120.798Z" fill="#95F244"/>
</g>
<defs>
<clipPath id="clip0_18_775">
<rect width="121" height="24.1933" fill="white"/>
</clipPath>
</defs>
</svg>
