<svg width="40" height="40" viewBox="0 0 40 40" fill="none" xmlns="http://www.w3.org/2000/svg">
<circle cx="20" cy="20" r="20" fill="#90F3FF"/>
<g clip-path="url(#clip0_18_799)">
<path d="M16.6755 27.5568C23.4123 27.5568 27.0964 21.98 27.0964 17.144C27.0964 16.9856 27.0931 16.8279 27.086 16.671C27.8012 16.1544 28.4227 15.5097 28.913 14.7759C28.2567 15.0674 27.5505 15.2636 26.8097 15.3521C27.5659 14.899 28.1464 14.1823 28.4203 13.3279C27.7126 13.747 26.929 14.0517 26.0946 14.2162C25.4262 13.5049 24.4747 13.0599 23.4211 13.0599C21.3985 13.0599 19.7584 14.6989 19.7584 16.7191C19.7584 17.0063 19.7905 17.2857 19.8533 17.5536C16.8093 17.4005 14.1101 15.9443 12.3037 13.7299C11.9891 14.2708 11.8077 14.899 11.8077 15.5693C11.8077 16.839 12.4543 17.9599 13.4376 18.6156C12.8367 18.5971 12.2722 18.4323 11.7789 18.1579C11.7783 18.1733 11.7783 18.1883 11.7783 18.2047C11.7783 19.977 13.0408 21.4568 14.7167 21.7921C14.4089 21.876 14.0851 21.9209 13.7509 21.9209C13.5153 21.9209 13.2857 21.8978 13.0625 21.8549C13.5288 23.309 14.8809 24.3672 16.484 24.3968C15.2304 25.3786 13.6513 25.9633 11.935 25.9633C11.6398 25.9633 11.3481 25.9465 11.0614 25.9126C12.6823 26.9508 14.6071 27.5566 16.6757 27.5566" fill="#020887"/>
</g>
<defs>
<clipPath id="clip0_18_799">
<rect width="17.9711" height="14.6165" fill="white" transform="translate(11.0002 12.9994)"/>
</clipPath>
</defs>
</svg>
